<svg width="14" height="14" viewBox="0 0 14 14" fill="none" xmlns="http://www.w3.org/2000/svg">
<path d="M6.18249 0.743125H3.84562C1.92374 0.743125 0.71875 2.10375 0.71875 4.03V9.22625C0.71875 11.1525 1.91812 12.5131 3.84562 12.5131H9.36062C11.2887 12.5131 12.4881 11.1525 12.4881 9.22625V6.70875M8.47805 1.87657L11.3318 4.73032M4.51717 5.82557L9.1878 1.15494C9.76967 0.573689 10.7128 0.573689 11.2947 1.15494L12.0553 1.91556C12.6372 2.49744 12.6372 3.44119 12.0553 4.02244L7.36217 8.71557C7.1078 8.96994 6.7628 9.11307 6.4028 9.11307H4.06155L4.1203 6.75057C4.12905 6.40307 4.27092 6.07182 4.51717 5.82557Z" stroke="#FEFEFE" stroke-width="1.2" stroke-linecap="round" stroke-linejoin="round"/>
</svg>
