<svg width="24" height="16" viewBox="0 0 24 16" fill="none" xmlns="http://www.w3.org/2000/svg">
<g clip-path="url(#clip0_9_1720)">
<path d="M0 2C0 0.895431 0.895431 0 2 0H22C23.1046 0 24 0.895431 24 2V14C24 15.1046 23.1046 16 22 16H2C0.89543 16 0 15.1046 0 14V2Z" fill="#FAE3D1"/>
<path d="M17.3068 6.07177C17.2511 5.73778 16.945 5.51513 16.5275 5.51513C16.3883 5.51513 16.277 5.51513 16.1378 5.51513C15.8873 5.48729 15.8317 5.57079 15.8317 5.76562C15.8317 6.73974 15.8317 7.68603 15.8317 8.66015C15.8317 9.16113 15.3307 9.68994 14.7462 9.80127C12.9093 10.2187 11.0724 10.6084 9.23547 11.0259C9.04065 11.0815 8.81799 11.0815 8.59534 11.0815C8.51184 11.0815 8.37268 11.0259 8.34485 10.9424C8.31702 10.8867 8.40051 10.7754 8.45618 10.7197C8.53967 10.6641 8.651 10.6084 8.76233 10.5527C9.09632 10.4414 9.45813 10.3301 9.79211 10.2187C11.1559 9.77344 12.5197 9.32812 13.8834 8.85497C14.4957 8.66015 14.8297 8.24267 14.8297 7.71386C14.8576 6.04394 14.8297 4.34618 14.8297 2.67626C14.8297 2.39794 14.6906 2.17528 14.3844 2.06395C14.0226 1.92479 13.6886 2.03612 13.3824 2.17528C11.4342 3.09374 9.51379 4.0122 7.56555 4.93066C7.00891 5.20898 6.67493 5.59862 6.67493 6.15526C6.67493 7.74169 6.67493 9.32812 6.67493 10.9146C6.67493 10.998 6.67492 11.0815 6.70275 11.1372C6.89758 11.666 7.39856 12 8.06653 12C9.4303 12 10.7941 12 12.1578 12C13.5216 12 14.8576 12 16.2213 12C16.5275 12 16.778 11.9443 17.0006 11.7495C17.2789 11.5269 17.2789 11.2207 17.2789 10.9424C17.2789 9.5731 17.3068 6.07177 17.3068 6.07177ZM11.629 5.57079C11.7682 5.20898 12.0743 4.98632 12.5197 4.93066C12.8258 4.90282 13.0763 5.06982 13.132 5.34814C13.1876 5.76562 12.6866 6.2666 12.1578 6.2666C11.7404 6.2666 11.4899 5.96044 11.629 5.57079Z" fill="#E47418"/>
</g>
<defs>
<clipPath id="clip0_9_1720">
<rect width="24" height="16" fill="white"/>
</clipPath>
</defs>
</svg>
