<svg width="24" height="16" viewBox="0 0 24 16" fill="none" xmlns="http://www.w3.org/2000/svg">
<g clip-path="url(#clip0_9_1720)">
<path d="M0 2C0 0.895431 0.895431 0 2 0H22C23.1046 0 24 0.895431 24 2V14C24 15.1046 23.1046 16 22 16H2C0.89543 16 0 15.1046 0 14V2Z" fill="#FAE3D1"/>
<path d="M8.6392 7.21875H7.39489C7.37216 7.05777 7.32576 6.91477 7.25568 6.78977C7.18561 6.66288 7.09564 6.55492 6.9858 6.46591C6.87595 6.37689 6.74905 6.30871 6.60511 6.26136C6.46307 6.21402 6.30871 6.19034 6.14205 6.19034C5.84091 6.19034 5.5786 6.26515 5.35511 6.41477C5.13163 6.5625 4.95833 6.77841 4.83523 7.0625C4.71212 7.3447 4.65057 7.6875 4.65057 8.09091C4.65057 8.50568 4.71212 8.85417 4.83523 9.13636C4.96023 9.41856 5.13447 9.63163 5.35795 9.77557C5.58144 9.91951 5.83996 9.99148 6.13352 9.99148C6.2983 9.99148 6.45076 9.9697 6.59091 9.92614C6.73295 9.88258 6.8589 9.81913 6.96875 9.7358C7.0786 9.65057 7.16951 9.54735 7.24148 9.42614C7.31534 9.30492 7.36648 9.16667 7.39489 9.01136L8.6392 9.01705C8.60701 9.28409 8.52652 9.54167 8.39773 9.78977C8.27083 10.036 8.09943 10.2566 7.88352 10.4517C7.66951 10.6449 7.41383 10.7983 7.11648 10.9119C6.82102 11.0237 6.48674 11.0795 6.11364 11.0795C5.5947 11.0795 5.13068 10.9621 4.72159 10.7273C4.31439 10.4924 3.99242 10.1525 3.75568 9.70739C3.52083 9.26231 3.40341 8.72348 3.40341 8.09091C3.40341 7.45644 3.52273 6.91667 3.76136 6.47159C4 6.02652 4.32386 5.6875 4.73295 5.45455C5.14205 5.2197 5.60227 5.10227 6.11364 5.10227C6.45076 5.10227 6.76326 5.14962 7.05114 5.24432C7.34091 5.33902 7.59754 5.47727 7.82102 5.65909C8.04451 5.83901 8.22633 6.05966 8.36648 6.32102C8.50852 6.58239 8.59943 6.88163 8.6392 7.21875ZM10.5724 5.18182L11.9787 9.60227H12.0327L13.4418 5.18182H14.8054L12.7997 11H11.2145L9.20597 5.18182H10.5724ZM16.5568 5.18182L17.9631 9.60227H18.017L19.4261 5.18182H20.7898L18.7841 11H17.1989L15.1903 5.18182H16.5568Z" fill="#F37421"/>
</g>
<defs>
<clipPath id="clip0_9_1720">
<rect width="24" height="16" fill="white"/>
</clipPath>
</defs>
</svg>
