<svg width="351" height="222" viewBox="0 0 351 222" fill="none" xmlns="http://www.w3.org/2000/svg">
<path d="M350.245 21.4311V201.061C350.245 212.619 340.863 222 329.305 222H21.2634C9.7055 222 0.324402 212.619 0.324402 201.061V21.4311C0.324402 9.87318 9.7055 0.492081 21.2634 0.492081H329.316C333.452 0.492081 337.318 1.69452 340.552 3.77805C346.378 7.47866 350.245 14.0092 350.245 21.4311Z" fill="url(#paint0_linear_0_107)"/>
<path d="M350.245 21.4311V157.825C317.333 170.306 280.234 166.097 271.226 150.248C264.623 138.627 278.088 129.568 274.346 108.131C272.563 97.9726 267.888 90.5506 261.223 83.5433C252.298 74.1207 239.786 65.4653 225.989 51.9689C217.116 43.2927 195.368 22.022 183.51 0.492081H329.305C333.441 0.492081 337.308 1.69452 340.552 3.78842C346.388 7.47867 350.245 13.9988 350.245 21.4311Z" fill="url(#paint1_linear_0_107)"/>
<path d="M350.245 68.7097V201.061C350.245 212.619 340.874 221.99 329.316 221.99H21.2634C9.70551 221.99 0.334778 212.619 0.334778 201.061V99.4341C6.3677 93.4633 13.4268 87.8762 21.647 83.1701C46.7116 68.7926 70.9366 69.7566 118.36 72.2548C175.497 75.2609 179.519 85.0463 219.749 86.2902C236.303 86.8085 249.779 85.5853 261.223 83.5432C299.794 76.567 315.073 59.9713 346.098 67.5695C347.477 67.9115 348.855 68.2847 350.245 68.7097Z" fill="url(#paint2_linear_0_107)"/>
<path d="M108.119 0.492081C102.418 56.1464 56.7768 99.9732 0.324402 102.845V21.4311C0.324402 9.87318 9.7055 0.492081 21.2634 0.492081H108.119Z" fill="url(#paint3_linear_0_107)"/>
<path opacity="0.33" d="M260.072 221.99H112.887L176.471 158.405C181.976 152.912 190.973 152.912 196.477 158.405L260.072 221.99Z" fill="url(#paint4_linear_0_107)"/>
<path opacity="0.27" d="M350.245 198.604V201.051C350.245 212.609 340.863 221.99 329.305 221.99H21.2634C9.7055 221.99 0.324402 212.609 0.324402 201.051V118.684C6.12928 115.595 12.836 113.242 20.3512 112.412C37.7659 110.515 51.4281 117.771 67.4744 126.551C98.2506 143.396 103.091 156.716 120.496 167.787C153.977 189.088 181.488 168.73 238.314 170.14C281.125 171.218 326.59 184.279 350.245 198.604Z" fill="url(#paint5_linear_0_107)"/>
<path opacity="0.53" d="M350.245 21.4311V201.061C350.245 212.619 340.863 222 329.305 222H21.2634C9.7055 222 0.324402 212.619 0.324402 201.061V21.4311C0.324402 9.87318 9.7055 0.492081 21.2634 0.492081H329.316C333.452 0.492081 337.318 1.69452 340.552 3.77805C346.378 7.47866 350.245 14.0092 350.245 21.4311Z" fill="url(#paint6_linear_0_107)"/>
<path d="M37.1335 37.0006H30.2299V42.0592H36.8433V44.0183H30.2299V50.6317H28.1567V35.0311H37.1335V37.0006Z" fill="white"/>
<path d="M40.4299 37.4671C40.0567 37.4671 39.7458 37.3427 39.497 37.0835C39.2482 36.8348 39.1134 36.5238 39.1134 36.1713C39.1134 35.8189 39.2378 35.5079 39.497 35.2488C39.7458 34.9896 40.0567 34.8549 40.4299 34.8549C40.7823 34.8549 41.0933 34.9896 41.3421 35.2488C41.5909 35.5079 41.7256 35.8189 41.7256 36.1713C41.7256 36.5238 41.6012 36.8348 41.3421 37.0835C41.0933 37.3323 40.7927 37.4671 40.4299 37.4671ZM39.4555 50.6317V39.4884H41.3939V50.6317H39.4555Z" fill="white"/>
<path d="M49.9043 39.1981C51.2104 39.1981 52.2573 39.6127 53.0451 40.4316C53.8329 41.2609 54.2268 42.3701 54.2268 43.7798V50.6213H52.2884V43.8938C52.2884 42.992 52.0396 42.2871 51.5524 41.7896C51.0652 41.292 50.3811 41.0432 49.5207 41.0432C48.5567 41.0432 47.7793 41.3438 47.1781 41.9451C46.5768 42.5463 46.2866 43.4688 46.2866 44.7231V50.6213H44.3482V39.4883H46.2866V41.0951C47.0744 39.8304 48.2872 39.1981 49.9043 39.1981Z" fill="white"/>
<path d="M66.1372 39.4884H68.0756V50.6316H66.1372V48.714C65.1732 50.1859 63.7634 50.9219 61.9287 50.9219C60.3738 50.9219 59.0366 50.3518 57.9378 49.2219C56.839 48.0816 56.2896 46.703 56.2896 45.0652C56.2896 43.4274 56.839 42.0487 57.9378 40.9085C59.0366 39.7682 60.3634 39.2085 61.9287 39.2085C63.7738 39.2085 65.1732 39.9445 66.1372 41.4164V39.4884ZM62.1774 49.0457C63.3073 49.0457 64.2506 48.6621 65.0073 47.8951C65.764 47.128 66.1476 46.1847 66.1476 45.0548C66.1476 43.9249 65.764 42.9816 65.0073 42.2146C64.2506 41.4475 63.3073 41.064 62.1774 41.064C61.0579 41.064 60.125 41.4475 59.3683 42.2146C58.6116 42.9816 58.2281 43.9249 58.2281 45.0548C58.2281 46.1847 58.6116 47.128 59.3683 47.8951C60.125 48.6621 61.0579 49.0457 62.1774 49.0457Z" fill="white"/>
<path d="M76.2543 50.9219C74.575 50.9219 73.1756 50.3621 72.0665 49.2426C70.947 48.1231 70.3976 46.7341 70.3976 45.0652C70.3976 43.3963 70.9573 42.0073 72.0665 40.8877C73.1756 39.7682 74.575 39.2085 76.2543 39.2085C77.3531 39.2085 78.3378 39.4676 79.2189 39.9963C80.1 40.5249 80.7531 41.2298 81.1781 42.1213L79.5506 43.0542C79.2708 42.4634 78.8354 41.9865 78.2445 41.6237C77.6537 41.2609 76.9903 41.0847 76.2543 41.0847C75.1348 41.0847 74.2122 41.4682 73.4555 42.2249C72.6988 42.9816 72.336 43.9249 72.336 45.0548C72.336 46.164 72.7092 47.1073 73.4555 47.864C74.2019 48.6207 75.1348 49.0042 76.2543 49.0042C77.0006 49.0042 77.664 48.828 78.2549 48.4755C78.8458 48.1231 79.3019 47.6566 79.6128 47.0658L81.261 48.0195C80.7842 48.9006 80.1 49.5951 79.2086 50.1237C78.3275 50.6524 77.3323 50.9219 76.2543 50.9219Z" fill="white"/>
<path d="M84.1635 37.4671C83.7903 37.4671 83.4793 37.3427 83.2305 37.0835C82.9817 36.8348 82.847 36.5238 82.847 36.1713C82.847 35.8189 82.9714 35.5079 83.2305 35.2488C83.4793 34.9896 83.7903 34.8549 84.1635 34.8549C84.5159 34.8549 84.8269 34.9896 85.0756 35.2488C85.3244 35.5079 85.4592 35.8189 85.4592 36.1713C85.4592 36.5238 85.3348 36.8348 85.0756 37.0835C84.8165 37.3323 84.5159 37.4671 84.1635 37.4671ZM83.1787 50.6317V39.4884H85.1171V50.6317H83.1787Z" fill="white"/>
<path d="M35.7963 94.1788V95.941L33.2878 95.8269L34.7494 97.8379L33.1738 98.7812L31.9299 96.5214L30.686 98.7812L29.1415 97.8379L30.5719 95.8269L28.0841 95.941V94.1788L30.5719 94.3135L29.1415 92.2714L30.686 91.3282L31.9299 93.5879L33.1738 91.3282L34.7494 92.2714L33.2878 94.3135L35.7963 94.1788Z" fill="white"/>
<path d="M48.7329 94.1787V95.9409L46.2244 95.8269L47.686 97.8379L46.1104 98.7812L44.8665 96.5214L43.6226 98.7812L42.0781 97.8379L43.5086 95.8269L41.0208 95.9409V94.1787L43.5086 94.3135L42.0781 92.2714L43.6226 91.3281L44.8665 93.5879L46.1104 91.3281L47.686 92.2714L46.2244 94.3135L48.7329 94.1787Z" fill="white"/>
<path d="M61.6799 94.1787V95.9409L59.1713 95.8269L60.6329 97.8379L59.0573 98.7812L57.8134 96.5214L56.5695 98.7812L55.025 97.8379L56.4555 95.8269L53.9677 95.9409V94.1787L56.4555 94.3135L55.025 92.2714L56.5695 91.3281L57.8134 93.5879L59.0573 91.3281L60.6329 92.2714L59.1713 94.3135L61.6799 94.1787Z" fill="white"/>
<path d="M74.6268 94.1787V95.9409L72.1183 95.8269L73.5799 97.8379L72.0043 98.7812L70.7604 96.5214L69.5165 98.7812L67.972 97.8379L69.4024 95.8269L66.9146 95.9409V94.1787L69.4024 94.3135L67.972 92.2714L69.5165 91.3281L70.7604 93.5879L72.0043 91.3281L73.5799 92.2714L72.1183 94.3135L74.6268 94.1787Z" fill="white"/>
<path d="M96.5403 94.1787V95.9409L94.0317 95.8269L95.4933 97.8379L93.9177 98.7812L92.6738 96.5214L91.4299 98.7812L89.8854 97.8379L91.3159 95.8269L88.8281 95.9409V94.1787L91.3159 94.3135L89.8854 92.2714L91.4299 91.3281L92.6738 93.5879L93.9177 91.3281L95.4933 92.2714L94.0317 94.3135L96.5403 94.1787Z" fill="white"/>
<path d="M109.487 94.1787V95.9409L106.979 95.8269L108.44 97.8379L106.865 98.7812L105.621 96.5214L104.377 98.7812L102.832 97.8379L104.263 95.8269L101.775 95.9409V94.1787L104.263 94.3135L102.832 92.2714L104.377 91.3281L105.621 93.5879L106.865 91.3281L108.44 92.2714L106.979 94.3135L109.487 94.1787Z" fill="white"/>
<path d="M122.434 94.1787V95.9409L119.926 95.8269L121.387 97.8379L119.812 98.7812L118.568 96.5214L117.324 98.7812L115.779 97.8379L117.21 95.8269L114.722 95.9409V94.1787L117.21 94.3135L115.779 92.2714L117.324 91.3281L118.568 93.5879L119.812 91.3281L121.387 92.2714L119.926 94.3135L122.434 94.1787Z" fill="white"/>
<path d="M135.371 94.1787V95.9409L132.862 95.8269L134.324 97.8379L132.748 98.7812L131.504 96.5214L130.26 98.7812L128.716 97.8379L130.146 95.8269L127.659 95.9409V94.1787L130.146 94.3135L128.716 92.2714L130.26 91.3281L131.504 93.5879L132.748 91.3281L134.324 92.2714L132.862 94.3135L135.371 94.1787Z" fill="white"/>
<path d="M157.295 94.1787V95.9409L154.786 95.8269L156.248 97.8379L154.672 98.7812L153.428 96.5214L152.184 98.7812L150.64 97.8379L152.07 95.8269L149.582 95.9409V94.1787L152.07 94.3135L150.64 92.2714L152.184 91.3281L153.428 93.5879L154.672 91.3281L156.248 92.2714L154.786 94.3135L157.295 94.1787Z" fill="white"/>
<path d="M170.231 94.1787V95.9409L167.723 95.8269L169.184 97.8379L167.609 98.7812L166.365 96.5214L165.121 98.7812L163.576 97.8379L165.007 95.8269L162.519 95.9409V94.1787L165.007 94.3135L163.576 92.2714L165.121 91.3281L166.365 93.5879L167.609 91.3281L169.184 92.2714L167.723 94.3135L170.231 94.1787Z" fill="white"/>
<path d="M183.178 94.1787V95.9409L180.669 95.8269L182.131 97.8379L180.555 98.7812L179.312 96.5214L178.068 98.7812L176.523 97.8379L177.954 95.8269L175.466 95.9409V94.1787L177.954 94.3135L176.523 92.2714L178.068 91.3281L179.312 93.5879L180.555 91.3281L182.131 92.2714L180.669 94.3135L183.178 94.1787Z" fill="white"/>
<path d="M196.125 94.1787V95.9409L193.616 95.8269L195.078 97.8379L193.502 98.7812L192.259 96.5214L191.015 98.7812L189.47 97.8379L190.901 95.8269L188.413 95.9409V94.1787L190.901 94.3135L189.47 92.2714L191.015 91.3281L192.259 93.5879L193.502 91.3281L195.078 92.2714L193.616 94.3135L196.125 94.1787Z" fill="white"/>
<path d="M209.735 111.013V108.919L216.556 101.963C218.38 100.139 219.293 98.5738 219.293 97.2677C219.293 96.1793 218.961 95.3397 218.298 94.7281C217.634 94.1165 216.826 93.8159 215.872 93.8159C214.048 93.8159 212.721 94.6763 211.902 96.4074L209.746 95.1427C210.347 93.8885 211.197 92.9452 212.275 92.3025C213.353 91.6598 214.545 91.3385 215.851 91.3385C217.468 91.3385 218.878 91.8775 220.07 92.9348C221.262 94.0025 221.863 95.433 221.863 97.2366C221.863 99.1854 220.713 101.31 218.412 103.612L213.488 108.525H222.226V111.013H209.735Z" fill="white"/>
<path d="M233.795 99.6104C235.266 99.8903 236.479 100.523 237.412 101.518C238.355 102.513 238.822 103.777 238.822 105.301C238.822 107.177 238.179 108.66 236.894 109.748C235.609 110.837 234.043 111.376 232.198 111.376C230.726 111.376 229.42 111.044 228.28 110.37C227.14 109.696 226.331 108.732 225.854 107.457L228.01 106.182C228.58 107.965 229.98 108.857 232.209 108.857C233.401 108.857 234.375 108.546 235.132 107.913C235.888 107.291 236.262 106.41 236.262 105.291C236.262 104.171 235.888 103.29 235.132 102.658C234.375 102.026 233.401 101.704 232.209 101.704H231.545L230.519 100.129L234.987 94.0854H226.404V91.6805H237.993L237.982 93.9506L233.795 99.6104Z" fill="white"/>
<path d="M257.895 104.938V107.343H255.552V111.013H252.982V107.343H243.124V104.938L250.048 91.6909H252.805L245.881 104.938H252.971V99.4756H255.542V104.938H257.895Z" fill="white"/>
<path d="M267.991 99.2269C269.816 99.2269 271.36 99.7659 272.615 100.844C273.879 101.922 274.512 103.404 274.512 105.301C274.512 107.177 273.869 108.66 272.584 109.748C271.298 110.837 269.733 111.376 267.888 111.376C266.416 111.376 265.099 111.023 263.938 110.318C262.777 109.613 261.969 108.587 261.513 107.24L263.69 105.996C263.949 106.939 264.446 107.644 265.182 108.131C265.918 108.618 266.82 108.867 267.888 108.867C269.101 108.867 270.085 108.556 270.842 107.924C271.599 107.291 271.972 106.421 271.972 105.301C271.972 104.182 271.599 103.301 270.842 102.668C270.085 102.036 269.121 101.715 267.94 101.715H262.477L263.171 91.6909H273.765V94.0958H265.514L265.172 99.2269H267.991Z" fill="white"/>
<path d="M29.722 163.796C28.5921 163.796 27.6592 163.423 26.9232 162.676C26.1872 161.93 25.8244 161.018 25.8244 159.929C25.8244 158.841 26.1872 157.929 26.9232 157.183C27.6592 156.436 28.5921 156.063 29.722 156.063C30.4061 156.063 31.0281 156.229 31.5982 156.55C32.1683 156.882 32.614 157.317 32.9354 157.867L32.075 158.364C31.8573 157.95 31.5463 157.628 31.1213 157.379C30.6963 157.131 30.2299 157.017 29.722 157.017C28.8616 157.017 28.1671 157.297 27.6177 157.846C27.0787 158.395 26.7988 159.09 26.7988 159.919C26.7988 160.738 27.0683 161.433 27.6177 161.982C28.1567 162.531 28.8616 162.811 29.722 162.811C30.2299 162.811 30.6963 162.687 31.1213 162.448C31.5463 162.2 31.8573 161.878 32.075 161.474L32.9354 161.961C32.6244 162.511 32.1787 162.956 31.6085 163.288C31.0384 163.62 30.4061 163.796 29.722 163.796Z" fill="white"/>
<path d="M38.3464 158.333H39.2689V163.661H38.3464V162.749C37.8799 163.454 37.2165 163.806 36.3354 163.806C35.589 163.806 34.9567 163.537 34.4281 162.987C33.8994 162.448 33.6403 161.785 33.6403 160.997C33.6403 160.22 33.8994 159.556 34.4281 159.007C34.9567 158.468 35.589 158.188 36.3354 158.188C37.2165 158.188 37.8903 158.54 38.3464 159.245V158.333ZM36.4494 162.894C36.9884 162.894 37.4445 162.707 37.797 162.345C38.1598 161.982 38.336 161.526 38.336 160.987C38.336 160.448 38.1598 159.992 37.797 159.629C37.4342 159.266 36.9884 159.079 36.4494 159.079C35.9207 159.079 35.4646 159.266 35.1122 159.629C34.7494 159.992 34.5732 160.448 34.5732 160.987C34.5732 161.526 34.7494 161.982 35.1122 162.345C35.475 162.718 35.9207 162.894 36.4494 162.894Z" fill="white"/>
<path d="M41.6012 159.225C41.9018 158.561 42.4616 158.229 43.2597 158.229V159.193C42.8036 159.173 42.4201 159.297 42.0884 159.556C41.7671 159.815 41.6012 160.24 41.6012 160.821V163.64H40.6786V158.312H41.6012V159.225Z" fill="white"/>
<path d="M48.2872 156.198H49.2098V163.651H48.2872V162.739C47.8208 163.443 47.1573 163.796 46.2762 163.796C45.5299 163.796 44.8976 163.526 44.3689 162.977C43.8403 162.438 43.5811 161.774 43.5811 160.987C43.5811 160.209 43.8403 159.546 44.3689 158.996C44.8976 158.457 45.5299 158.178 46.2762 158.178C47.1573 158.178 47.8311 158.53 48.2872 159.235V156.198ZM46.4006 162.894C46.9397 162.894 47.3957 162.707 47.7482 162.345C48.111 161.982 48.2872 161.526 48.2872 160.987C48.2872 160.448 48.111 159.992 47.7482 159.629C47.3854 159.266 46.9397 159.079 46.4006 159.079C45.872 159.079 45.4159 159.266 45.0634 159.629C44.7006 159.992 44.5244 160.448 44.5244 160.987C44.5244 161.526 44.7006 161.982 45.0634 162.345C45.4159 162.718 45.8616 162.894 46.4006 162.894Z" fill="white"/>
<path d="M57.9896 156.198H58.9744V163.651H57.9896V160.292H54.372V163.651H53.3768V156.198H54.372V159.359H57.9896V156.198Z" fill="white"/>
<path d="M64.9659 162.977C64.4165 163.516 63.7531 163.786 62.9756 163.786C62.1982 163.786 61.5348 163.516 60.9854 162.977C60.4464 162.438 60.1665 161.775 60.1665 160.987C60.1665 160.199 60.436 159.536 60.9854 158.996C61.5244 158.457 62.1878 158.188 62.9756 158.188C63.7634 158.188 64.4165 158.457 64.9659 158.996C65.5153 159.536 65.7848 160.199 65.7848 160.987C65.7848 161.775 65.5153 162.438 64.9659 162.977ZM62.9756 162.884C63.5043 162.884 63.9604 162.707 64.3128 162.345C64.6756 161.982 64.8518 161.536 64.8518 160.997C64.8518 160.458 64.6756 160.002 64.3128 159.65C63.95 159.287 63.5043 159.111 62.9756 159.111C62.447 159.111 62.0116 159.287 61.6488 159.65C61.286 160.012 61.1098 160.468 61.1098 160.997C61.1098 161.536 61.286 161.992 61.6488 162.345C62.0116 162.707 62.447 162.884 62.9756 162.884Z" fill="white"/>
<path d="M66.8835 163.651V155.876H67.8061V163.651H66.8835Z" fill="white"/>
<path d="M73.6317 156.198H74.5543V163.651H73.6317V162.739C73.1652 163.443 72.5018 163.796 71.6207 163.796C70.8744 163.796 70.2421 163.526 69.7134 162.977C69.1847 162.438 68.9256 161.774 68.9256 160.987C68.9256 160.209 69.1847 159.546 69.7134 158.996C70.2421 158.457 70.8744 158.178 71.6207 158.178C72.5018 158.178 73.1756 158.53 73.6317 159.235V156.198ZM71.7347 162.894C72.2738 162.894 72.7299 162.707 73.0823 162.345C73.4451 161.982 73.6213 161.526 73.6213 160.987C73.6213 160.448 73.4451 159.992 73.0823 159.629C72.7195 159.266 72.2738 159.079 71.7347 159.079C71.2061 159.079 70.75 159.266 70.3975 159.629C70.0347 159.992 69.8585 160.448 69.8585 160.987C69.8585 161.526 70.0347 161.982 70.3975 162.345C70.7604 162.718 71.2061 162.894 71.7347 162.894Z" fill="white"/>
<path d="M76.6171 161.412C76.7104 161.889 76.9281 162.262 77.2701 162.521C77.6122 162.78 78.0372 162.915 78.5451 162.915C79.25 162.915 79.7579 162.656 80.0793 162.137L80.8671 162.583C80.3488 163.381 79.5714 163.785 78.5244 163.785C77.6744 163.785 76.9903 163.526 76.4616 162.987C75.9329 162.459 75.6738 161.785 75.6738 160.976C75.6738 160.178 75.9329 159.504 76.4512 158.976C76.9695 158.447 77.6433 158.178 78.4622 158.178C79.2397 158.178 79.8823 158.457 80.3695 159.007C80.8671 159.556 81.1055 160.22 81.1055 160.997C81.1055 161.132 81.0951 161.267 81.0744 161.412H76.6171ZM78.4622 159.059C77.9647 159.059 77.55 159.204 77.2287 159.484C76.9073 159.764 76.7 160.137 76.6275 160.603H80.1829C80.1 160.095 79.9031 159.712 79.5817 159.453C79.25 159.193 78.8872 159.059 78.4622 159.059Z" fill="white"/>
<path d="M83.0957 159.225C83.3963 158.561 83.9561 158.229 84.7543 158.229V159.193C84.2982 159.173 83.9146 159.297 83.5829 159.556C83.2616 159.815 83.0957 160.24 83.0957 160.821V163.64H82.1732V158.312H83.0957V159.225Z" fill="white"/>
<path d="M90.9738 158.188C91.5957 158.188 92.1036 158.385 92.4768 158.779C92.85 159.173 93.0366 159.712 93.0366 160.386V163.651H92.114V160.437C92.114 160.002 92 159.67 91.7616 159.432C91.5232 159.193 91.2018 159.079 90.7975 159.079C90.3311 159.079 89.9579 159.225 89.678 159.515C89.3982 159.805 89.253 160.24 89.253 160.842V163.661H88.3305V158.333H89.253V159.1C89.6262 158.489 90.2067 158.188 90.9738 158.188Z" fill="white"/>
<path d="M98.7378 158.333H99.6604V163.661H98.7378V162.749C98.2713 163.454 97.6079 163.806 96.7268 163.806C95.9805 163.806 95.3482 163.537 94.8195 162.987C94.2909 162.448 94.0317 161.785 94.0317 160.997C94.0317 160.22 94.2909 159.556 94.8195 159.007C95.3482 158.468 95.9805 158.188 96.7268 158.188C97.6079 158.188 98.2817 158.54 98.7378 159.245V158.333ZM96.8409 162.894C97.3799 162.894 97.836 162.707 98.1884 162.345C98.5512 161.982 98.7274 161.526 98.7274 160.987C98.7274 160.448 98.5512 159.992 98.1884 159.629C97.8256 159.266 97.3799 159.079 96.8409 159.079C96.3122 159.079 95.8561 159.266 95.5037 159.629C95.1409 159.992 94.9646 160.448 94.9646 160.987C94.9646 161.526 95.1409 161.982 95.5037 162.345C95.8665 162.718 96.3122 162.894 96.8409 162.894Z" fill="white"/>
<path d="M106.823 158.188C107.424 158.188 107.901 158.385 108.274 158.768C108.648 159.152 108.824 159.681 108.824 160.344V163.651H107.901V160.375C107.901 159.961 107.798 159.639 107.58 159.421C107.362 159.193 107.082 159.079 106.73 159.079C106.336 159.079 106.015 159.214 105.776 159.473C105.538 159.732 105.424 160.147 105.424 160.696V163.661H104.501V160.386C104.501 159.971 104.398 159.65 104.201 159.432C103.993 159.204 103.724 159.09 103.371 159.09C102.977 159.09 102.656 159.225 102.397 159.494C102.138 159.764 102.003 160.168 102.003 160.707V163.671H101.08V158.343H102.003V159.059C102.366 158.489 102.894 158.209 103.589 158.209C104.304 158.209 104.823 158.509 105.154 159.111C105.517 158.489 106.077 158.188 106.823 158.188Z" fill="white"/>
<path d="M110.762 161.412C110.855 161.889 111.073 162.262 111.415 162.521C111.757 162.78 112.182 162.915 112.69 162.915C113.395 162.915 113.903 162.656 114.224 162.137L115.012 162.583C114.494 163.381 113.716 163.785 112.67 163.785C111.82 163.785 111.135 163.526 110.607 162.987C110.078 162.459 109.819 161.785 109.819 160.976C109.819 160.178 110.078 159.504 110.596 158.976C111.115 158.447 111.788 158.178 112.607 158.178C113.385 158.178 114.027 158.457 114.515 159.007C115.012 159.556 115.251 160.22 115.251 160.997C115.251 161.132 115.24 161.267 115.22 161.412H110.762ZM112.607 159.059C112.11 159.059 111.695 159.204 111.374 159.484C111.052 159.764 110.845 160.137 110.773 160.603H114.318C114.235 160.095 114.038 159.712 113.716 159.453C113.405 159.193 113.032 159.059 112.607 159.059Z" fill="white"/>
<path d="M33.0805 174.359H35.3299V185.761H33.6195L28.7372 178.785V185.761H26.4878V174.359H28.1982L33.0805 181.304V174.359Z" fill="white"/>
<path d="M44.286 184.745C43.4464 185.575 42.4305 185.989 41.2281 185.989C40.0257 185.989 38.9994 185.575 38.1702 184.745C37.3409 183.916 36.9263 182.9 36.9263 181.687C36.9263 180.485 37.3409 179.469 38.1702 178.629C38.9994 177.8 40.0153 177.386 41.2281 177.386C42.4305 177.386 43.4568 177.8 44.286 178.629C45.1257 179.459 45.5403 180.475 45.5403 181.687C45.5403 182.9 45.1153 183.916 44.286 184.745ZM39.6421 183.304C40.0568 183.729 40.5854 183.937 41.2177 183.937C41.8501 183.937 42.3787 183.729 42.7933 183.304C43.2183 182.879 43.4257 182.34 43.4257 181.687C43.4257 181.034 43.2183 180.495 42.7933 180.081C42.3683 179.656 41.8397 179.448 41.2177 179.448C40.5958 179.448 40.0671 179.656 39.6421 180.081C39.2275 180.506 39.0202 181.045 39.0202 181.687C39.0202 182.34 39.2275 182.879 39.6421 183.304Z" fill="white"/>
<path d="M56.0201 177.396C56.9531 177.396 57.6994 177.696 58.2592 178.308C58.8189 178.92 59.0988 179.728 59.0988 180.754V185.771H56.9945V180.899C56.9945 180.412 56.8701 180.029 56.6317 179.759C56.3933 179.49 56.0512 179.355 55.6262 179.355C55.1494 179.355 54.7762 179.51 54.5067 179.832C54.2372 180.153 54.1128 180.599 54.1128 181.2V185.782H52.0189V180.91C52.0189 180.423 51.8945 180.039 51.6561 179.77C51.4177 179.5 51.0756 179.365 50.6506 179.365C50.1842 179.365 49.811 179.521 49.5311 179.842C49.2512 180.153 49.1165 180.609 49.1165 181.21V185.792H47.0122V177.645H49.1165V178.505C49.6037 177.779 50.3604 177.416 51.3762 177.416C52.3714 177.416 53.1177 177.81 53.5945 178.588C54.1439 177.779 54.9525 177.396 56.0201 177.396Z" fill="white"/>
<path d="M67.0805 177.624H69.1848V185.771H67.0805V184.807C66.4482 185.595 65.5671 185.999 64.4269 185.999C63.3384 185.999 62.4055 185.585 61.6281 184.756C60.8506 183.926 60.4671 182.91 60.4671 181.698C60.4671 180.495 60.8506 179.479 61.6281 178.64C62.4055 177.81 63.3384 177.396 64.4269 177.396C65.5671 177.396 66.4482 177.79 67.0805 178.588V177.624ZM63.2037 183.346C63.6287 183.771 64.1677 183.988 64.8208 183.988C65.4738 183.988 66.0128 183.771 66.4378 183.346C66.8628 182.921 67.0805 182.361 67.0805 181.687C67.0805 181.013 66.8628 180.464 66.4378 180.039C66.0128 179.614 65.4738 179.396 64.8208 179.396C64.1677 179.396 63.6287 179.614 63.2037 180.039C62.7787 180.464 62.5714 181.024 62.5714 181.687C62.5714 182.361 62.7891 182.921 63.2037 183.346Z" fill="white"/>
<path d="M75.622 177.396C76.5134 177.396 77.2494 177.696 77.8299 178.287C78.4104 178.888 78.7006 179.707 78.7006 180.765V185.761H76.5964V181.024C76.5964 180.485 76.4512 180.07 76.161 179.78C75.8708 179.49 75.4769 179.345 74.9897 179.345C74.4506 179.345 74.0153 179.51 73.6836 179.852C73.3622 180.195 73.1964 180.692 73.1964 181.366V185.761H71.0921V177.613H73.1964V178.526C73.7043 177.769 74.5128 177.396 75.622 177.396Z" fill="white"/>
<path d="M95.8147 174.359V185.761H93.586V178.37L90.3726 183.657L90.1135 183.667L86.9104 178.401V185.771H84.661V174.369H86.9726L90.2378 179.749L93.4927 174.369H95.8147V174.359Z" fill="white"/>
<path d="M104.024 177.624H106.129V185.771H104.024V184.807C103.392 185.595 102.511 185.999 101.371 185.999C100.282 185.999 99.3494 185.585 98.572 184.756C97.7945 183.926 97.411 182.91 97.411 181.698C97.411 180.495 97.7945 179.479 98.572 178.64C99.3494 177.81 100.282 177.396 101.371 177.396C102.511 177.396 103.392 177.79 104.024 178.588V177.624ZM100.148 183.346C100.573 183.771 101.112 183.988 101.765 183.988C102.418 183.988 102.957 183.771 103.382 183.346C103.807 182.921 104.024 182.361 104.024 181.687C104.024 181.013 103.807 180.464 103.382 180.039C102.957 179.614 102.418 179.396 101.765 179.396C101.112 179.396 100.573 179.614 100.148 180.039C99.7226 180.464 99.5152 181.024 99.5152 181.687C99.5152 182.361 99.7226 182.921 100.148 183.346Z" fill="white"/>
<path d="M112.555 177.396C113.447 177.396 114.183 177.696 114.763 178.287C115.344 178.888 115.634 179.707 115.634 180.765V185.761H113.53V181.024C113.53 180.485 113.385 180.07 113.095 179.78C112.804 179.49 112.41 179.345 111.923 179.345C111.384 179.345 110.949 179.51 110.617 179.852C110.296 180.195 110.13 180.692 110.13 181.366V185.761H108.026V177.613H110.13V178.526C110.648 177.769 111.457 177.396 112.555 177.396Z" fill="white"/>
<path d="M119.895 183.792H123.512V185.761H117.085V184.362L120.516 179.583H117.241V177.614H123.346V179.013L119.895 183.792Z" fill="white"/>
<path d="M131.504 184.745C130.665 185.575 129.649 185.989 128.446 185.989C127.244 185.989 126.218 185.575 125.388 184.745C124.559 183.916 124.145 182.9 124.145 181.687C124.145 180.485 124.559 179.469 125.388 178.629C126.218 177.8 127.234 177.386 128.446 177.386C129.649 177.386 130.675 177.8 131.504 178.629C132.344 179.459 132.759 180.475 132.759 181.687C132.759 182.9 132.334 183.916 131.504 184.745ZM126.871 183.304C127.285 183.729 127.814 183.937 128.446 183.937C129.079 183.937 129.607 183.729 130.022 183.304C130.447 182.879 130.654 182.34 130.654 181.687C130.654 181.034 130.447 180.495 130.022 180.081C129.597 179.656 129.068 179.448 128.446 179.448C127.824 179.448 127.296 179.656 126.871 180.081C126.456 180.506 126.249 181.045 126.249 181.687C126.238 182.34 126.446 182.879 126.871 183.304Z" fill="white"/>
<path d="M141.176 184.745C140.336 185.575 139.32 185.989 138.118 185.989C136.915 185.989 135.889 185.575 135.06 184.745C134.23 183.916 133.816 182.9 133.816 181.687C133.816 180.485 134.23 179.469 135.06 178.629C135.889 177.8 136.905 177.386 138.118 177.386C139.32 177.386 140.346 177.8 141.176 178.629C142.015 179.459 142.43 180.475 142.43 181.687C142.43 182.9 142.015 183.916 141.176 184.745ZM136.542 183.304C136.957 183.729 137.485 183.937 138.118 183.937C138.75 183.937 139.279 183.729 139.693 183.304C140.118 182.879 140.326 182.34 140.326 181.687C140.326 181.034 140.118 180.495 139.693 180.081C139.268 179.656 138.74 179.448 138.118 179.448C137.496 179.448 136.967 179.656 136.542 180.081C136.127 180.506 135.92 181.045 135.92 181.687C135.92 182.34 136.127 182.879 136.542 183.304Z" fill="white"/>
<path d="M146.016 179.023C146.213 178.505 146.535 178.111 146.981 177.852C147.426 177.593 147.934 177.458 148.484 177.458V179.801C147.841 179.728 147.271 179.853 146.763 180.195C146.255 180.537 146.006 181.086 146.006 181.874V185.771H143.902V177.624H146.006V179.023H146.016Z" fill="white"/>
<path d="M255.998 162.718H259.46V163.651H255.013V156.198H259.409V157.131H255.998V159.421H259.139V160.344H255.998V162.718Z" fill="white"/>
<path d="M265.172 163.651H264.084L262.591 161.64L261.098 163.651H260.01L262.052 160.914L260.134 158.333H261.233L262.601 160.178L263.98 158.333H265.068L263.151 160.914L265.172 163.651Z" fill="white"/>
<path d="M268.976 158.188C269.723 158.188 270.355 158.457 270.884 159.007C271.412 159.546 271.671 160.209 271.671 160.997C271.671 161.775 271.412 162.438 270.884 162.987C270.355 163.526 269.723 163.806 268.976 163.806C268.095 163.806 267.421 163.454 266.965 162.749V165.796H266.043V158.343H266.965V159.256C267.421 158.54 268.095 158.188 268.976 158.188ZM268.862 162.894C269.391 162.894 269.837 162.707 270.199 162.345C270.562 161.982 270.738 161.526 270.738 160.987C270.738 160.448 270.562 159.992 270.199 159.629C269.837 159.266 269.391 159.079 268.862 159.079C268.323 159.079 267.867 159.266 267.515 159.629C267.152 159.992 266.976 160.448 266.976 160.987C266.976 161.526 267.152 161.982 267.515 162.345C267.867 162.718 268.323 162.894 268.862 162.894Z" fill="white"/>
<path d="M273.247 157.359C273.071 157.359 272.915 157.296 272.801 157.182C272.687 157.068 272.625 156.913 272.625 156.747C272.625 156.581 272.687 156.426 272.801 156.301C272.915 156.177 273.071 156.115 273.247 156.115C273.413 156.115 273.558 156.177 273.682 156.301C273.807 156.426 273.859 156.571 273.859 156.747C273.859 156.923 273.796 157.068 273.682 157.182C273.568 157.296 273.413 157.359 273.247 157.359ZM272.78 163.651V158.323H273.703V163.651H272.78Z" fill="white"/>
<path d="M276.046 159.225C276.346 158.561 276.906 158.229 277.704 158.229V159.193C277.248 159.173 276.865 159.297 276.533 159.556C276.212 159.815 276.046 160.24 276.046 160.821V163.64H275.123V158.312H276.046V159.225Z" fill="white"/>
<path d="M282.441 158.333H283.437L281.26 163.982C281.032 164.584 280.71 165.05 280.306 165.361C279.902 165.672 279.425 165.817 278.896 165.786V164.926C279.549 164.978 280.026 164.615 280.327 163.837L280.43 163.64L278.109 158.333H279.104L280.876 162.417L282.441 158.333Z" fill="white"/>
<path d="M289.874 156.198C290.89 156.198 291.729 156.56 292.403 157.276C293.077 157.991 293.409 158.882 293.409 159.919C293.409 160.966 293.077 161.847 292.403 162.562C291.729 163.288 290.89 163.64 289.874 163.64H286.971V156.187H289.874V156.198ZM289.874 162.718C290.63 162.718 291.252 162.448 291.74 161.92C292.227 161.391 292.465 160.728 292.465 159.929C292.465 159.131 292.227 158.468 291.74 157.939C291.252 157.41 290.641 157.141 289.874 157.141H287.956V162.718H289.874Z" fill="white"/>
<path d="M298.923 158.333H299.846V163.661H298.923V162.749C298.457 163.454 297.793 163.806 296.912 163.806C296.166 163.806 295.534 163.537 295.005 162.987C294.476 162.448 294.217 161.785 294.217 160.997C294.217 160.22 294.476 159.556 295.005 159.007C295.534 158.468 296.166 158.188 296.912 158.188C297.793 158.188 298.467 158.54 298.923 159.245V158.333ZM297.037 162.894C297.576 162.894 298.032 162.707 298.384 162.345C298.747 161.982 298.923 161.526 298.923 160.987C298.923 160.448 298.747 159.992 298.384 159.629C298.021 159.266 297.576 159.079 297.037 159.079C296.508 159.079 296.052 159.266 295.699 159.629C295.337 159.992 295.16 160.448 295.16 160.987C295.16 161.526 295.337 161.982 295.699 162.345C296.052 162.718 296.498 162.894 297.037 162.894Z" fill="white"/>
<path d="M304.158 159.224H302.738V162.106C302.738 162.365 302.79 162.552 302.893 162.666C302.997 162.78 303.152 162.832 303.37 162.832C303.588 162.832 303.847 162.832 304.158 162.821V163.651C303.349 163.754 302.759 163.692 302.385 163.454C302.012 163.215 301.826 162.77 301.826 162.106V159.224H300.768V158.333H301.826V157.12L302.748 156.84V158.333H304.168V159.224H304.158Z" fill="white"/>
<path d="M305.64 161.412C305.734 161.889 305.951 162.262 306.293 162.521C306.635 162.78 307.06 162.915 307.568 162.915C308.273 162.915 308.781 162.656 309.102 162.137L309.89 162.583C309.372 163.381 308.595 163.785 307.548 163.785C306.698 163.785 306.013 163.526 305.485 162.987C304.956 162.459 304.697 161.785 304.697 160.976C304.697 160.178 304.956 159.504 305.474 158.976C305.993 158.447 306.666 158.178 307.485 158.178C308.263 158.178 308.905 158.457 309.393 159.007C309.89 159.556 310.129 160.22 310.129 160.997C310.129 161.132 310.118 161.267 310.098 161.412H305.64ZM307.475 159.059C306.977 159.059 306.563 159.204 306.241 159.484C305.92 159.764 305.713 160.137 305.64 160.603H309.196C309.113 160.095 308.916 159.712 308.595 159.453C308.273 159.193 307.9 159.059 307.475 159.059Z" fill="white"/>
<path d="M262.58 184.362C261.813 185.44 260.725 185.979 259.336 185.979C257.947 185.979 256.869 185.44 256.091 184.362C255.324 183.283 254.93 181.853 254.93 180.06C254.93 178.266 255.314 176.836 256.091 175.758C256.859 174.68 257.947 174.141 259.336 174.141C260.725 174.141 261.803 174.68 262.58 175.758C263.348 176.836 263.741 178.266 263.741 180.06C263.741 181.853 263.358 183.283 262.58 184.362ZM257.211 183.335C257.709 184.102 258.424 184.496 259.346 184.496C260.269 184.496 260.984 184.113 261.492 183.335C262 182.568 262.249 181.469 262.249 180.06C262.249 178.65 262 177.551 261.492 176.774C260.984 175.996 260.269 175.613 259.346 175.613C258.424 175.613 257.709 175.996 257.211 176.774C256.713 177.541 256.465 178.64 256.465 180.06C256.465 181.469 256.713 182.568 257.211 183.335Z" fill="white"/>
<path d="M264.851 185.761V184.527L268.873 180.423C269.951 179.344 270.49 178.422 270.49 177.655C270.49 177.012 270.293 176.515 269.899 176.152C269.505 175.789 269.028 175.613 268.468 175.613C267.39 175.613 266.613 176.121 266.126 177.147L264.851 176.401C265.213 175.665 265.711 175.105 266.343 174.721C266.976 174.338 267.681 174.151 268.458 174.151C269.412 174.151 270.241 174.462 270.946 175.094C271.651 175.727 272.003 176.566 272.003 177.634C272.003 178.785 271.329 180.039 269.971 181.397L267.059 184.289H272.21V185.751H264.851V185.761Z" fill="white"/>
<path d="M274.315 187.368L273.465 187.388L279.985 172.752L280.835 172.731L274.315 187.368Z" fill="white"/>
<path d="M286.588 179.033C287.459 179.199 288.174 179.572 288.723 180.163C289.283 180.754 289.552 181.49 289.552 182.392C289.552 183.501 289.169 184.372 288.412 185.015C287.656 185.657 286.733 185.979 285.645 185.979C284.774 185.979 284.007 185.782 283.333 185.388C282.659 184.994 282.182 184.424 281.902 183.667L283.177 182.921C283.509 183.978 284.338 184.496 285.655 184.496C286.36 184.496 286.94 184.31 287.386 183.947C287.832 183.584 288.049 183.066 288.049 182.402C288.049 181.739 287.832 181.221 287.386 180.847C286.94 180.474 286.36 180.288 285.655 180.288H285.261L284.66 179.355L287.303 175.789H282.234V174.369H289.076L289.065 175.696L286.588 179.033Z" fill="white"/>
<path d="M298.529 184.362C297.762 185.44 296.674 185.979 295.285 185.979C293.896 185.979 292.818 185.44 292.04 184.362C291.273 183.283 290.879 181.853 290.879 180.06C290.879 178.266 291.263 176.836 292.04 175.758C292.807 174.68 293.896 174.141 295.285 174.141C296.674 174.141 297.752 174.68 298.529 175.758C299.296 176.836 299.69 178.266 299.69 180.06C299.69 181.853 299.307 183.283 298.529 184.362ZM293.16 183.335C293.657 184.102 294.373 184.496 295.295 184.496C296.218 184.496 296.933 184.113 297.441 183.335C297.949 182.568 298.198 181.469 298.198 180.06C298.198 178.65 297.949 177.551 297.441 176.774C296.933 175.996 296.218 175.613 295.295 175.613C294.373 175.613 293.657 175.996 293.16 176.774C292.662 177.541 292.413 178.64 292.413 180.06C292.403 181.469 292.652 182.568 293.16 183.335Z" fill="white"/>
<path d="M321.521 34.5751H318.059C316.98 34.5751 316.182 34.8757 315.705 35.9331L309.051 51.0257H313.757C313.757 51.0257 314.534 48.994 314.7 48.5587H320.443C320.577 49.1391 320.982 51.0257 320.982 51.0257H325.149L321.521 34.5751ZM315.996 45.1898C316.369 44.2465 317.768 40.5873 317.768 40.5873C317.768 40.577 318.152 39.6233 318.37 39.0221L318.67 40.4422C318.67 40.4422 319.531 44.3605 319.707 45.2001H315.996V45.1898Z" fill="white"/>
<path d="M303.07 39.1361C303.059 39.9135 304.023 40.4214 305.599 41.1781C308.18 42.3598 309.382 43.7696 309.362 45.6562C309.33 49.0666 306.273 51.2745 301.546 51.2745C299.535 51.2537 297.596 50.8495 296.549 50.3934L297.182 46.7031L297.762 46.9726C299.224 47.5842 300.188 47.833 301.981 47.833C303.266 47.833 304.645 47.3251 304.655 46.2263C304.666 45.5007 304.075 44.9824 302.334 44.1739C300.623 43.3861 298.374 42.0696 298.395 39.7062C298.415 36.5135 301.546 34.2745 305.972 34.2745C307.713 34.2745 309.113 34.6373 309.994 34.969L309.382 38.5348L308.978 38.3483C308.149 38.0165 307.081 37.6952 305.62 37.7159C303.888 37.7159 303.07 38.4519 303.07 39.1361Z" fill="white"/>
<path d="M296.549 34.5648L293.74 51.0154H289.262L292.061 34.5648H296.549Z" fill="white"/>
<path d="M280.441 43.0336C278.948 39.2294 275.372 36.0678 269.951 34.7513L270.013 34.4196H276.968C277.912 34.4507 278.668 34.7513 278.927 35.7568L280.441 43.0336Z" fill="white"/>
<path d="M290.257 34.5751L283.188 51.005H278.451L274.439 37.291C277.321 39.1361 279.777 42.0696 280.648 44.1117L281.125 45.8117L285.52 34.5855H290.257V34.5751Z" fill="white"/>
<path d="M58.9329 142.971H30.9451C29.1518 142.971 27.6799 141.499 27.6799 139.705V118.984C27.6799 117.191 29.1518 115.719 30.9451 115.719H58.9329C60.7262 115.719 62.1982 117.191 62.1982 118.984V139.705C62.1982 141.499 60.7262 142.971 58.9329 142.971Z" fill="#F6C859"/>
<path d="M40.9586 139.332C40.8135 139.332 40.6683 139.249 40.6061 139.115C40.5025 138.918 40.5854 138.679 40.7823 138.576C41.3628 138.275 42.1506 137.726 42.6067 136.761C43.1872 135.538 43.0317 134.211 42.7933 134.097C42.7311 134.066 42.4927 134.191 42.3476 134.263C41.9744 134.46 41.4458 134.719 40.8445 134.512C40.2537 134.305 39.9634 133.776 39.8287 133.527C38.9269 131.869 38.647 127.557 39.6006 125.411C39.922 124.696 40.347 124.281 40.886 124.157C41.4354 124.032 41.8811 124.26 42.2336 124.447C42.5238 124.602 42.6793 124.665 42.7622 124.613C43.1354 124.385 43.125 123.016 42.6067 121.928C42.1506 120.964 41.3628 120.415 40.7823 120.114C40.5854 120.01 40.5128 119.772 40.6061 119.575C40.7098 119.378 40.9482 119.305 41.1452 119.399C41.8293 119.751 42.7726 120.415 43.322 121.586C43.8714 122.736 44.1305 124.716 43.1665 125.297C42.6793 125.587 42.2232 125.349 41.85 125.162C41.5702 125.017 41.311 124.882 41.0519 124.944C40.6994 125.027 40.461 125.432 40.3159 125.753C39.4763 127.619 39.7147 131.703 40.5128 133.165C40.6476 133.413 40.8134 133.683 41.0933 133.776C41.3628 133.869 41.6116 133.755 41.9744 133.569C42.3269 133.393 42.7208 133.185 43.1354 133.393C44.0269 133.828 43.975 135.756 43.322 137.124C42.7726 138.285 41.8293 138.959 41.1452 139.311C41.083 139.322 41.0208 139.332 40.9586 139.332Z" fill="#FD6602"/>
<path d="M39.7665 126.136H32.5726C32.3549 126.136 32.1683 125.96 32.1683 125.732C32.1683 125.504 32.3445 125.328 32.5726 125.328H39.7665C39.9842 125.328 40.1707 125.504 40.1707 125.732C40.1707 125.96 39.9842 126.136 39.7665 126.136Z" fill="#FD6602"/>
<path d="M39.7665 133.341H32.5726C32.3549 133.341 32.1683 133.164 32.1683 132.936C32.1683 132.708 32.3445 132.532 32.5726 132.532H39.7665C39.9842 132.532 40.1707 132.708 40.1707 132.936C40.1707 133.164 39.9842 133.341 39.7665 133.341Z" fill="#FD6602"/>
<path d="M49.3549 139.332C49.2927 139.332 49.2305 139.322 49.1683 139.291C48.4842 138.938 47.5409 138.275 46.9915 137.104C46.3384 135.735 46.2866 133.807 47.1781 133.372C47.5927 133.175 47.9866 133.372 48.339 133.548C48.7019 133.735 48.9506 133.849 49.2201 133.755C49.5208 133.652 49.697 133.33 49.8006 133.144C50.5988 131.682 50.8372 127.608 49.9976 125.732C49.8525 125.411 49.6037 125.007 49.2616 124.924C49.0439 124.872 48.9092 124.654 48.961 124.447C49.0128 124.229 49.2305 124.105 49.4378 124.146C49.9769 124.271 50.4019 124.696 50.7232 125.411C51.6769 127.557 51.4073 131.869 50.4951 133.527C50.3604 133.776 50.0701 134.305 49.4793 134.512C48.8781 134.719 48.3494 134.46 47.9762 134.263C47.8311 134.191 47.5823 134.066 47.5305 134.097C47.2921 134.211 47.1366 135.538 47.7171 136.761C48.1732 137.725 48.961 138.275 49.5415 138.575C49.7384 138.679 49.811 138.918 49.7177 139.114C49.6451 139.249 49.5 139.332 49.3549 139.332Z" fill="#FD6602"/>
<path d="M47.7585 124.54C47.5927 124.54 47.4372 124.436 47.375 124.271C46.5146 121.7 48.5256 119.72 49.1683 119.388C49.3652 119.285 49.6037 119.368 49.7073 119.565C49.811 119.761 49.728 120 49.5311 120.104C49.2408 120.249 47.3957 121.835 48.1317 124.022C48.2043 124.229 48.0902 124.457 47.8829 124.53C47.8415 124.53 47.8 124.54 47.7585 124.54Z" fill="#FD6602"/>
<path d="M57.7512 126.136H50.5573C50.3397 126.136 50.1531 125.96 50.1531 125.732C50.1531 125.504 50.3293 125.328 50.5573 125.328H57.7512C57.9689 125.328 58.1555 125.504 58.1555 125.732C58.1555 125.96 57.9793 126.136 57.7512 126.136Z" fill="#FD6602"/>
<path d="M57.7512 133.341H50.5573C50.3397 133.341 50.1531 133.164 50.1531 132.936C50.1531 132.708 50.3293 132.532 50.5573 132.532H57.7512C57.9689 132.532 58.1555 132.708 58.1555 132.936C58.1555 133.164 57.9793 133.341 57.7512 133.341Z" fill="#FD6602"/>
<defs>
<linearGradient id="paint0_linear_0_107" x1="38.5664" y1="247.965" x2="312.006" y2="-25.4748" gradientUnits="userSpaceOnUse">
<stop stop-color="#EE6911"/>
<stop offset="1" stop-color="#EE6911"/>
</linearGradient>
<linearGradient id="paint1_linear_0_107" x1="233.055" y1="112.977" x2="341.756" y2="4.27552" gradientUnits="userSpaceOnUse">
<stop stop-color="#FD6602"/>
<stop offset="1" stop-color="#EE6911"/>
</linearGradient>
<linearGradient id="paint2_linear_0_107" x1="60.2377" y1="269.632" x2="305.701" y2="24.1682" gradientUnits="userSpaceOnUse">
<stop stop-color="#FD6602"/>
<stop offset="1" stop-color="#EE6911"/>
</linearGradient>
<linearGradient id="paint3_linear_0_107" x1="-11.7941" y1="90.7223" x2="93.2762" y2="-14.348" gradientUnits="userSpaceOnUse">
<stop stop-color="#EE6911"/>
<stop offset="1" stop-color="#EE6911"/>
</linearGradient>
<linearGradient id="paint4_linear_0_107" x1="149.685" y1="258.788" x2="223.275" y2="185.198" gradientUnits="userSpaceOnUse">
<stop stop-color="#FD6602"/>
<stop offset="1" stop-color="#83EFFF"/>
</linearGradient>
<linearGradient id="paint5_linear_0_107" x1="65.0483" y1="274.447" x2="245.568" y2="93.9268" gradientUnits="userSpaceOnUse">
<stop stop-color="#EE6911"/>
<stop offset="0.466346" stop-color="#FD6602"/>
</linearGradient>
<linearGradient id="paint6_linear_0_107" x1="38.5664" y1="247.965" x2="312.006" y2="-25.4748" gradientUnits="userSpaceOnUse">
<stop stop-color="#EE6911"/>
<stop offset="1" stop-color="#EE6911"/>
</linearGradient>
</defs>
</svg>
