<svg width="348" height="202" viewBox="0 0 348 202" fill="none" xmlns="http://www.w3.org/2000/svg">
<g clip-path="url(#clip0_0_4)">
<rect y="0.886002" width="347.324" height="201.114" rx="12" fill="#3F3F3F"/>
<circle cx="85.1293" cy="138.732" r="162.5" transform="rotate(-24.0581 85.1293 138.732)" fill="#2F2C2C"/>
<path d="M35.3092 27.6122H28.4055V32.6708H35.0189V34.6299H28.4055V41.2433H26.3323V25.6427H35.3092V27.6122Z" fill="white"/>
<path d="M38.6055 28.0786C38.2324 28.0786 37.9214 27.9543 37.6726 27.6951C37.4238 27.4463 37.2891 27.1354 37.2891 26.7829C37.2891 26.4305 37.4135 26.1195 37.6726 25.8604C37.9214 25.6012 38.2324 25.4664 38.6055 25.4664C38.958 25.4664 39.2689 25.6012 39.5177 25.8604C39.7665 26.1195 39.9013 26.4305 39.9013 26.7829C39.9013 27.1354 39.7769 27.4463 39.5177 27.6951C39.2689 27.9439 38.9683 28.0786 38.6055 28.0786ZM37.6311 41.2433V30.1H39.5696V41.2433H37.6311Z" fill="white"/>
<path d="M48.0799 29.8097C49.386 29.8097 50.4329 30.2243 51.2208 31.0432C52.0086 31.8725 52.4025 32.9816 52.4025 34.3914V41.2328H50.4641V34.5054C50.4641 33.6036 50.2153 32.8987 49.7281 32.4011C49.2409 31.9036 48.5567 31.6548 47.6964 31.6548C46.7323 31.6548 45.9549 31.9554 45.3537 32.5566C44.7525 33.1579 44.4622 34.0804 44.4622 35.3347V41.2328H42.5238V30.0999H44.4622V31.7066C45.25 30.442 46.4628 29.8097 48.0799 29.8097Z" fill="white"/>
<path d="M64.3128 30.0999H66.2512V41.2432H64.3128V39.3255C63.3488 40.7975 61.9391 41.5335 60.1043 41.5335C58.5494 41.5335 57.2122 40.9633 56.1134 39.8335C55.0147 38.6932 54.4653 37.3146 54.4653 35.6768C54.4653 34.039 55.0147 32.6603 56.1134 31.5201C57.2122 30.3798 58.5391 29.8201 60.1043 29.8201C61.9494 29.8201 63.3488 30.556 64.3128 32.028V30.0999ZM60.3531 39.6572C61.483 39.6572 62.4262 39.2737 63.183 38.5066C63.9397 37.7396 64.3232 36.7963 64.3232 35.6664C64.3232 34.5365 63.9397 33.5932 63.183 32.8261C62.4262 32.0591 61.483 31.6755 60.3531 31.6755C59.2336 31.6755 58.3006 32.0591 57.5439 32.8261C56.7872 33.5932 56.4037 34.5365 56.4037 35.6664C56.4037 36.7963 56.7872 37.7396 57.5439 38.5066C58.3006 39.2737 59.2336 39.6572 60.3531 39.6572Z" fill="white"/>
<path d="M74.4299 41.5335C72.7506 41.5335 71.3512 40.9737 70.2421 39.8542C69.1226 38.7347 68.5732 37.3457 68.5732 35.6768C68.5732 34.0079 69.1329 32.6188 70.2421 31.4993C71.3512 30.3798 72.7506 29.8201 74.4299 29.8201C75.5287 29.8201 76.5134 30.0792 77.3945 30.6079C78.2756 31.1365 78.9287 31.8414 79.3537 32.7329L77.7262 33.6658C77.4464 33.0749 77.011 32.5981 76.4201 32.2353C75.8293 31.8725 75.1659 31.6963 74.4299 31.6963C73.3104 31.6963 72.3878 32.0798 71.6311 32.8365C70.8744 33.5932 70.5116 34.5365 70.5116 35.6664C70.5116 36.7755 70.8848 37.7188 71.6311 38.4755C72.3775 39.2323 73.3104 39.6158 74.4299 39.6158C75.1762 39.6158 75.8396 39.4396 76.4305 39.0871C77.0214 38.7347 77.4774 38.2682 77.7884 37.6774L79.4366 38.631C78.9598 39.5121 78.2756 40.2066 77.3842 40.7353C76.5031 41.264 75.5079 41.5335 74.4299 41.5335Z" fill="white"/>
<path d="M82.3391 28.0786C81.9659 28.0786 81.6549 27.9543 81.4061 27.6951C81.1573 27.4463 81.0226 27.1354 81.0226 26.7829C81.0226 26.4305 81.147 26.1195 81.4061 25.8604C81.6549 25.6012 81.9659 25.4664 82.3391 25.4664C82.6915 25.4664 83.0025 25.6012 83.2512 25.8604C83.5 26.1195 83.6348 26.4305 83.6348 26.7829C83.6348 27.1354 83.5104 27.4463 83.2512 27.6951C82.9921 27.9439 82.6915 28.0786 82.3391 28.0786ZM81.3543 41.2433V30.1H83.2927V41.2433H81.3543Z" fill="white"/>
<path d="M33.972 84.7903V86.5525L31.4634 86.4385L32.925 88.4495L31.3494 89.3928L30.1055 87.133L28.8616 89.3928L27.3171 88.4495L28.7476 86.4385L26.2598 86.5525V84.7903L28.7476 84.9251L27.3171 82.883L28.8616 81.9397L30.1055 84.1995L31.3494 81.9397L32.925 82.883L31.4634 84.9251L33.972 84.7903Z" fill="white"/>
<path d="M46.9085 84.7903V86.5525L44.4 86.4385L45.8616 88.4494L44.286 89.3927L43.0421 87.133L41.7982 89.3927L40.2537 88.4494L41.6842 86.4385L39.1964 86.5525V84.7903L41.6842 84.925L40.2537 82.883L41.7982 81.9397L43.0421 84.1994L44.286 81.9397L45.8616 82.883L44.4 84.925L46.9085 84.7903Z" fill="white"/>
<path d="M59.8555 84.7903V86.5525L57.347 86.4385L58.8086 88.4494L57.2329 89.3927L55.989 87.133L54.7451 89.3927L53.2006 88.4494L54.6311 86.4385L52.1433 86.5525V84.7903L54.6311 84.925L53.2006 82.883L54.7451 81.9397L55.989 84.1994L57.2329 81.9397L58.8086 82.883L57.347 84.925L59.8555 84.7903Z" fill="white"/>
<path d="M72.8025 84.7903V86.5525L70.2939 86.4385L71.7555 88.4494L70.1799 89.3927L68.936 87.133L67.6921 89.3927L66.1476 88.4494L67.5781 86.4385L65.0903 86.5525V84.7903L67.5781 84.925L66.1476 82.883L67.6921 81.9397L68.936 84.1994L70.1799 81.9397L71.7555 82.883L70.2939 84.925L72.8025 84.7903Z" fill="white"/>
<path d="M94.7159 84.7903V86.5525L92.2073 86.4385L93.6689 88.4494L92.0933 89.3927L90.8494 87.133L89.6055 89.3927L88.061 88.4494L89.4915 86.4385L87.0037 86.5525V84.7903L89.4915 84.925L88.061 82.883L89.6055 81.9397L90.8494 84.1994L92.0933 81.9397L93.6689 82.883L92.2073 84.925L94.7159 84.7903Z" fill="white"/>
<path d="M107.663 84.7903V86.5525L105.154 86.4385L106.616 88.4494L105.04 89.3927L103.796 87.133L102.552 89.3927L101.008 88.4494L102.438 86.4385L99.9506 86.5525V84.7903L102.438 84.925L101.008 82.883L102.552 81.9397L103.796 84.1994L105.04 81.9397L106.616 82.883L105.154 84.925L107.663 84.7903Z" fill="white"/>
<path d="M120.61 84.7903V86.5525L118.101 86.4385L119.563 88.4494L117.987 89.3927L116.743 87.133L115.499 89.3927L113.955 88.4494L115.385 86.4385L112.898 86.5525V84.7903L115.385 84.925L113.955 82.883L115.499 81.9397L116.743 84.1994L117.987 81.9397L119.563 82.883L118.101 84.925L120.61 84.7903Z" fill="white"/>
<path d="M133.546 84.7903V86.5525L131.038 86.4385L132.499 88.4494L130.924 89.3927L129.68 87.133L128.436 89.3927L126.891 88.4494L128.322 86.4385L125.834 86.5525V84.7903L128.322 84.925L126.891 82.883L128.436 81.9397L129.68 84.1994L130.924 81.9397L132.499 82.883L131.038 84.925L133.546 84.7903Z" fill="white"/>
<path d="M155.47 84.7903V86.5525L152.962 86.4385L154.423 88.4494L152.848 89.3927L151.604 87.133L150.36 89.3927L148.815 88.4494L150.246 86.4385L147.758 86.5525V84.7903L150.246 84.925L148.815 82.883L150.36 81.9397L151.604 84.1994L152.848 81.9397L154.423 82.883L152.962 84.925L155.47 84.7903Z" fill="white"/>
<path d="M168.407 84.7903V86.5525L165.898 86.4385L167.36 88.4494L165.784 89.3927L164.54 87.133L163.296 89.3927L161.752 88.4494L163.182 86.4385L160.695 86.5525V84.7903L163.182 84.925L161.752 82.883L163.296 81.9397L164.54 84.1994L165.784 81.9397L167.36 82.883L165.898 84.925L168.407 84.7903Z" fill="white"/>
<path d="M181.354 84.7903V86.5525L178.845 86.4385L180.307 88.4494L178.731 89.3927L177.487 87.133L176.243 89.3927L174.699 88.4494L176.129 86.4385L173.641 86.5525V84.7903L176.129 84.925L174.699 82.883L176.243 81.9397L177.487 84.1994L178.731 81.9397L180.307 82.883L178.845 84.925L181.354 84.7903Z" fill="white"/>
<path d="M194.301 84.7903V86.5525L191.792 86.4385L193.254 88.4494L191.678 89.3927L190.434 87.133L189.19 89.3927L187.646 88.4494L189.076 86.4385L186.588 86.5525V84.7903L189.076 84.925L187.646 82.883L189.19 81.9397L190.434 84.1994L191.678 81.9397L193.254 82.883L191.792 84.925L194.301 84.7903Z" fill="white"/>
<path d="M207.911 101.624V99.5305L214.732 92.575C216.556 90.7507 217.468 89.1854 217.468 87.8793C217.468 86.7909 217.137 85.9513 216.473 85.3397C215.81 84.7281 215.001 84.4275 214.048 84.4275C212.223 84.4275 210.896 85.2878 210.077 87.0189L207.921 85.7543C208.523 84.5 209.373 83.5568 210.451 82.9141C211.529 82.2714 212.721 81.9501 214.027 81.9501C215.644 81.9501 217.054 82.4891 218.246 83.5464C219.438 84.6141 220.039 86.0446 220.039 87.8482C220.039 89.797 218.888 91.922 216.587 94.2232L211.663 99.1366H220.402V101.624H207.911Z" fill="white"/>
<path d="M231.97 90.222C233.442 90.5018 234.655 91.1342 235.588 92.1293C236.531 93.1244 236.998 94.389 236.998 95.9128C236.998 97.789 236.355 99.2714 235.07 100.36C233.784 101.448 232.219 101.987 230.374 101.987C228.902 101.987 227.596 101.655 226.456 100.982C225.315 100.308 224.507 99.3439 224.03 98.0689L226.186 96.7939C226.756 98.5768 228.156 99.4683 230.384 99.4683C231.576 99.4683 232.551 99.1573 233.307 98.525C234.064 97.9031 234.437 97.022 234.437 95.9024C234.437 94.7829 234.064 93.9018 233.307 93.2695C232.551 92.6372 231.576 92.3159 230.384 92.3159H229.721L228.695 90.7403L233.162 84.697H224.579V82.2921H236.168L236.158 84.5622L231.97 90.222Z" fill="white"/>
<path d="M256.071 95.55V97.9549H253.728V101.624H251.157V97.9549H241.299V95.55L248.224 82.3025H250.981L244.057 95.55H251.147V90.0872H253.718V95.55H256.071Z" fill="white"/>
<path d="M266.167 89.8384C267.992 89.8384 269.536 90.3774 270.79 91.4555C272.055 92.5335 272.687 94.0159 272.687 95.9128C272.687 97.789 272.045 99.2714 270.759 100.36C269.474 101.448 267.909 101.987 266.063 101.987C264.592 101.987 263.275 101.635 262.114 100.93C260.953 100.225 260.145 99.1988 259.688 97.8512L261.865 96.6073C262.124 97.5506 262.622 98.2555 263.358 98.7427C264.094 99.2299 264.996 99.4787 266.063 99.4787C267.276 99.4787 268.261 99.1677 269.018 98.5354C269.774 97.9031 270.148 97.0323 270.148 95.9128C270.148 94.7933 269.774 93.9122 269.018 93.2799C268.261 92.6476 267.297 92.3262 266.115 92.3262H260.652L261.347 82.3025H271.941V84.7073H263.69L263.348 89.8384H266.167Z" fill="white"/>
<path d="M27.8976 154.408C26.7677 154.408 25.8348 154.034 25.0988 153.288C24.3628 152.542 24 151.629 24 150.541C24 149.453 24.3628 148.54 25.0988 147.794C25.8348 147.048 26.7677 146.675 27.8976 146.675C28.5817 146.675 29.2037 146.84 29.7738 147.162C30.3439 147.494 30.7896 147.929 31.111 148.478L30.2506 148.976C30.0329 148.561 29.7219 148.24 29.2969 147.991C28.8719 147.742 28.4055 147.628 27.8976 147.628C27.0372 147.628 26.3427 147.908 25.7933 148.458C25.2543 149.007 24.9744 149.701 24.9744 150.531C24.9744 151.35 25.2439 152.044 25.7933 152.594C26.3323 153.143 27.0372 153.423 27.8976 153.423C28.4055 153.423 28.8719 153.298 29.2969 153.06C29.7219 152.811 30.0329 152.49 30.2506 152.086L31.111 152.573C30.8 153.122 30.3543 153.568 29.7841 153.9C29.214 154.231 28.5817 154.408 27.8976 154.408Z" fill="white"/>
<path d="M36.522 148.945H37.4445V154.273H36.522V153.36C36.0555 154.065 35.3921 154.418 34.511 154.418C33.7646 154.418 33.1323 154.148 32.6037 153.599C32.075 153.06 31.8159 152.396 31.8159 151.609C31.8159 150.831 32.075 150.168 32.6037 149.618C33.1323 149.079 33.7646 148.8 34.511 148.8C35.3921 148.8 36.0659 149.152 36.522 149.857V148.945ZM34.625 153.506C35.164 153.506 35.6201 153.319 35.9726 152.956C36.3354 152.593 36.5116 152.137 36.5116 151.598C36.5116 151.059 36.3354 150.603 35.9726 150.24C35.6098 149.878 35.164 149.691 34.625 149.691C34.0963 149.691 33.6402 149.878 33.2878 150.24C32.925 150.603 32.7488 151.059 32.7488 151.598C32.7488 152.137 32.925 152.593 33.2878 152.956C33.6506 153.329 34.0963 153.506 34.625 153.506Z" fill="white"/>
<path d="M39.7768 149.836C40.0774 149.173 40.6372 148.841 41.4353 148.841V149.805C40.9792 149.784 40.5957 149.909 40.264 150.168C39.9427 150.427 39.7768 150.852 39.7768 151.432V154.252H38.8542V148.924H39.7768V149.836Z" fill="white"/>
<path d="M46.4628 146.809H47.3854V154.262H46.4628V153.35C45.9963 154.055 45.3329 154.407 44.4518 154.407C43.7055 154.407 43.0732 154.138 42.5445 153.588C42.0159 153.049 41.7567 152.386 41.7567 151.598C41.7567 150.821 42.0159 150.157 42.5445 149.608C43.0732 149.069 43.7055 148.789 44.4518 148.789C45.3329 148.789 46.0067 149.142 46.4628 149.846V146.809ZM44.5762 153.506C45.1153 153.506 45.5713 153.319 45.9238 152.956C46.2866 152.593 46.4628 152.137 46.4628 151.598C46.4628 151.059 46.2866 150.603 45.9238 150.24C45.561 149.878 45.1153 149.691 44.5762 149.691C44.0476 149.691 43.5915 149.878 43.239 150.24C42.8762 150.603 42.7 151.059 42.7 151.598C42.7 152.137 42.8762 152.593 43.239 152.956C43.5915 153.329 44.0372 153.506 44.5762 153.506Z" fill="white"/>
<path d="M56.1652 146.809H57.15V154.262H56.1652V150.904H52.5476V154.262H51.5524V146.809H52.5476V149.971H56.1652V146.809Z" fill="white"/>
<path d="M63.1415 153.589C62.5921 154.128 61.9287 154.397 61.1512 154.397C60.3738 154.397 59.7104 154.128 59.161 153.589C58.622 153.05 58.3421 152.386 58.3421 151.598C58.3421 150.81 58.6116 150.147 59.161 149.608C59.7 149.069 60.3634 148.8 61.1512 148.8C61.9391 148.8 62.5921 149.069 63.1415 149.608C63.6909 150.147 63.9604 150.81 63.9604 151.598C63.9604 152.386 63.6909 153.05 63.1415 153.589ZM61.1512 153.495C61.6799 153.495 62.136 153.319 62.4884 152.956C62.8512 152.593 63.0275 152.148 63.0275 151.609C63.0275 151.07 62.8512 150.614 62.4884 150.261C62.1256 149.898 61.6799 149.722 61.1512 149.722C60.6226 149.722 60.1872 149.898 59.8244 150.261C59.4616 150.624 59.2854 151.08 59.2854 151.609C59.2854 152.148 59.4616 152.604 59.8244 152.956C60.1872 153.319 60.6226 153.495 61.1512 153.495Z" fill="white"/>
<path d="M65.0591 154.262V146.488H65.9817V154.262H65.0591Z" fill="white"/>
<path d="M71.8073 146.809H72.7299V154.262H71.8073V153.35C71.3408 154.055 70.6774 154.407 69.7963 154.407C69.05 154.407 68.4177 154.138 67.889 153.588C67.3603 153.049 67.1012 152.386 67.1012 151.598C67.1012 150.821 67.3603 150.157 67.889 149.608C68.4177 149.069 69.05 148.789 69.7963 148.789C70.6774 148.789 71.3512 149.142 71.8073 149.846V146.809ZM69.9103 153.506C70.4494 153.506 70.9055 153.319 71.2579 152.956C71.6207 152.593 71.7969 152.137 71.7969 151.598C71.7969 151.059 71.6207 150.603 71.2579 150.24C70.8951 149.878 70.4494 149.691 69.9103 149.691C69.3817 149.691 68.9256 149.878 68.5731 150.24C68.2103 150.603 68.0341 151.059 68.0341 151.598C68.0341 152.137 68.2103 152.593 68.5731 152.956C68.936 153.329 69.3817 153.506 69.9103 153.506Z" fill="white"/>
<path d="M74.7927 152.023C74.8859 152.5 75.1036 152.873 75.4457 153.132C75.7878 153.392 76.2128 153.526 76.7207 153.526C77.4256 153.526 77.9335 153.267 78.2549 152.749L79.0427 153.195C78.5244 153.993 77.7469 154.397 76.7 154.397C75.85 154.397 75.1658 154.138 74.6372 153.599C74.1085 153.07 73.8494 152.396 73.8494 151.588C73.8494 150.79 74.1085 150.116 74.6268 149.587C75.1451 149.059 75.8189 148.789 76.6378 148.789C77.4152 148.789 78.0579 149.069 78.5451 149.618C79.0427 150.168 79.2811 150.831 79.2811 151.609C79.2811 151.743 79.2707 151.878 79.25 152.023H74.7927ZM76.6378 149.67C76.1402 149.67 75.7256 149.815 75.4042 150.095C75.0829 150.375 74.8756 150.748 74.803 151.215H78.3585C78.2756 150.707 78.0786 150.323 77.7573 150.064C77.4256 149.805 77.0628 149.67 76.6378 149.67Z" fill="white"/>
<path d="M81.2713 149.836C81.5719 149.173 82.1317 148.841 82.9299 148.841V149.805C82.4738 149.784 82.0902 149.909 81.7585 150.168C81.4372 150.427 81.2713 150.852 81.2713 151.432V154.252H80.3488V148.924H81.2713V149.836Z" fill="white"/>
<path d="M89.1494 148.8C89.7714 148.8 90.2793 148.996 90.6524 149.39C91.0256 149.784 91.2122 150.323 91.2122 150.997V154.262H90.2896V151.049C90.2896 150.614 90.1756 150.282 89.9372 150.043C89.6988 149.805 89.3774 149.691 88.9732 149.691C88.5067 149.691 88.1335 149.836 87.8537 150.126C87.5738 150.417 87.4287 150.852 87.4287 151.453V154.273H86.5061V148.945H87.4287V149.712C87.8018 149.1 88.3823 148.8 89.1494 148.8Z" fill="white"/>
<path d="M96.9134 148.945H97.8359V154.273H96.9134V153.36C96.4469 154.065 95.7835 154.418 94.9024 154.418C94.1561 154.418 93.5237 154.148 92.9951 153.599C92.4664 153.06 92.2073 152.396 92.2073 151.609C92.2073 150.831 92.4664 150.168 92.9951 149.618C93.5237 149.079 94.1561 148.8 94.9024 148.8C95.7835 148.8 96.4573 149.152 96.9134 149.857V148.945ZM95.0164 153.506C95.5554 153.506 96.0115 153.319 96.364 152.956C96.7268 152.593 96.903 152.137 96.903 151.598C96.903 151.059 96.7268 150.603 96.364 150.24C96.0012 149.878 95.5554 149.691 95.0164 149.691C94.4878 149.691 94.0317 149.878 93.6792 150.24C93.3164 150.603 93.1402 151.059 93.1402 151.598C93.1402 152.137 93.3164 152.593 93.6792 152.956C94.042 153.329 94.4878 153.506 95.0164 153.506Z" fill="white"/>
<path d="M104.999 148.8C105.6 148.8 106.077 148.996 106.45 149.38C106.823 149.764 106.999 150.292 106.999 150.956V154.262H106.077V150.987C106.077 150.572 105.973 150.251 105.755 150.033C105.538 149.805 105.258 149.691 104.905 149.691C104.512 149.691 104.19 149.826 103.952 150.085C103.713 150.344 103.599 150.759 103.599 151.308V154.273H102.677V150.997C102.677 150.582 102.573 150.261 102.376 150.043C102.169 149.815 101.899 149.701 101.547 149.701C101.153 149.701 100.832 149.836 100.573 150.106C100.313 150.375 100.179 150.779 100.179 151.318V154.283H99.2561V148.955H100.179V149.67C100.541 149.1 101.07 148.82 101.765 148.82C102.48 148.82 102.998 149.121 103.33 149.722C103.693 149.1 104.252 148.8 104.999 148.8Z" fill="white"/>
<path d="M108.938 152.023C109.031 152.5 109.249 152.873 109.591 153.132C109.933 153.392 110.358 153.526 110.866 153.526C111.571 153.526 112.079 153.267 112.4 152.749L113.188 153.195C112.67 153.993 111.892 154.397 110.845 154.397C109.995 154.397 109.311 154.138 108.782 153.599C108.254 153.07 107.995 152.396 107.995 151.588C107.995 150.79 108.254 150.116 108.772 149.587C109.29 149.059 109.964 148.789 110.783 148.789C111.56 148.789 112.203 149.069 112.69 149.618C113.188 150.168 113.426 150.831 113.426 151.609C113.426 151.743 113.416 151.878 113.395 152.023H108.938ZM110.783 149.67C110.285 149.67 109.871 149.815 109.549 150.095C109.228 150.375 109.021 150.748 108.948 151.215H112.493C112.41 150.707 112.213 150.323 111.892 150.064C111.581 149.805 111.208 149.67 110.783 149.67Z" fill="white"/>
<path d="M31.2561 164.97H33.5055V176.373H31.7952L26.9128 169.396V176.373H24.6635V164.97H26.3738L31.2561 171.915V164.97Z" fill="white"/>
<path d="M42.4616 175.357C41.622 176.186 40.6061 176.601 39.4037 176.601C38.2013 176.601 37.175 176.186 36.3458 175.357C35.5165 174.528 35.1019 173.512 35.1019 172.299C35.1019 171.096 35.5165 170.081 36.3458 169.241C37.175 168.412 38.1909 167.997 39.4037 167.997C40.6061 167.997 41.6324 168.412 42.4616 169.241C43.3013 170.07 43.7159 171.086 43.7159 172.299C43.7159 173.512 43.2909 174.528 42.4616 175.357ZM37.8177 173.916C38.2324 174.341 38.761 174.548 39.3933 174.548C40.0257 174.548 40.5543 174.341 40.9689 173.916C41.3939 173.491 41.6013 172.952 41.6013 172.299C41.6013 171.646 41.3939 171.107 40.9689 170.692C40.5439 170.267 40.0153 170.06 39.3933 170.06C38.7714 170.06 38.2427 170.267 37.8177 170.692C37.4031 171.117 37.1958 171.656 37.1958 172.299C37.1958 172.952 37.4031 173.491 37.8177 173.916Z" fill="white"/>
<path d="M54.1958 168.007C55.1287 168.007 55.8751 168.308 56.4348 168.92C56.9946 169.531 57.2745 170.34 57.2745 171.366V176.383H55.1702V171.511C55.1702 171.024 55.0458 170.64 54.8074 170.371C54.569 170.101 54.2269 169.966 53.8019 169.966C53.3251 169.966 52.9519 170.122 52.6824 170.443C52.4129 170.765 52.2885 171.21 52.2885 171.812V176.393H50.1946V171.521C50.1946 171.034 50.0702 170.651 49.8318 170.381C49.5934 170.112 49.2513 169.977 48.8263 169.977C48.3598 169.977 47.9866 170.132 47.7068 170.454C47.4269 170.765 47.2921 171.221 47.2921 171.822V176.404H45.1879V168.256H47.2921V169.116C47.7793 168.391 48.536 168.028 49.5519 168.028C50.547 168.028 51.2934 168.422 51.7702 169.199C52.3196 168.391 53.1281 168.007 54.1958 168.007Z" fill="white"/>
<path d="M65.2561 168.235H67.3604V176.383H65.2561V175.419C64.6238 176.207 63.7427 176.611 62.6025 176.611C61.514 176.611 60.5811 176.196 59.8037 175.367C59.0262 174.538 58.6427 173.522 58.6427 172.309C58.6427 171.107 59.0262 170.091 59.8037 169.251C60.5811 168.422 61.514 168.007 62.6025 168.007C63.7427 168.007 64.6238 168.401 65.2561 169.199V168.235ZM61.3793 173.957C61.8043 174.382 62.3433 174.6 62.9964 174.6C63.6494 174.6 64.1884 174.382 64.6134 173.957C65.0384 173.532 65.2561 172.973 65.2561 172.299C65.2561 171.625 65.0384 171.076 64.6134 170.651C64.1884 170.226 63.6494 170.008 62.9964 170.008C62.3433 170.008 61.8043 170.226 61.3793 170.651C60.9543 171.076 60.747 171.635 60.747 172.299C60.747 172.973 60.9647 173.532 61.3793 173.957Z" fill="white"/>
<path d="M73.7976 168.007C74.689 168.007 75.425 168.308 76.0055 168.899C76.586 169.5 76.8762 170.319 76.8762 171.376V176.373H74.772V171.635C74.772 171.096 74.6268 170.682 74.3366 170.391C74.0464 170.101 73.6525 169.956 73.1653 169.956C72.6262 169.956 72.1909 170.122 71.8592 170.464C71.5378 170.806 71.372 171.304 71.372 171.977V176.373H69.2677V168.225H71.372V169.137C71.8799 168.38 72.6884 168.007 73.7976 168.007Z" fill="white"/>
<path d="M93.9903 164.97V176.373H91.7616V168.982L88.5482 174.268L88.2891 174.279L85.086 169.013V176.383H82.8366V164.981H85.1482L88.4134 170.36L91.6683 164.981H93.9903V164.97Z" fill="white"/>
<path d="M102.2 168.235H104.304V176.383H102.2V175.419C101.568 176.207 100.687 176.611 99.5464 176.611C98.4579 176.611 97.525 176.196 96.7476 175.367C95.9701 174.538 95.5866 173.522 95.5866 172.309C95.5866 171.107 95.9701 170.091 96.7476 169.251C97.525 168.422 98.4579 168.007 99.5464 168.007C100.687 168.007 101.568 168.401 102.2 169.199V168.235ZM98.3232 173.957C98.7482 174.382 99.2872 174.6 99.9403 174.6C100.593 174.6 101.132 174.382 101.557 173.957C101.982 173.532 102.2 172.973 102.2 172.299C102.2 171.625 101.982 171.076 101.557 170.651C101.132 170.226 100.593 170.008 99.9403 170.008C99.2872 170.008 98.7482 170.226 98.3232 170.651C97.8982 171.076 97.6909 171.635 97.6909 172.299C97.6909 172.973 97.8982 173.532 98.3232 173.957Z" fill="white"/>
<path d="M110.731 168.007C111.623 168.007 112.359 168.308 112.939 168.899C113.52 169.5 113.81 170.319 113.81 171.376V176.373H111.706V171.635C111.706 171.096 111.56 170.682 111.27 170.391C110.98 170.101 110.586 169.956 110.099 169.956C109.56 169.956 109.124 170.122 108.793 170.464C108.471 170.806 108.306 171.304 108.306 171.977V176.373H106.201V168.225H108.306V169.137C108.824 168.38 109.632 168.007 110.731 168.007Z" fill="white"/>
<path d="M118.07 174.403H121.688V176.373H115.261V174.973L118.692 170.195H115.416V168.225H121.522V169.624L118.07 174.403Z" fill="white"/>
<path d="M129.68 175.357C128.84 176.186 127.824 176.601 126.622 176.601C125.42 176.601 124.393 176.186 123.564 175.357C122.735 174.528 122.32 173.512 122.32 172.299C122.32 171.096 122.735 170.081 123.564 169.241C124.393 168.412 125.409 167.997 126.622 167.997C127.824 167.997 128.851 168.412 129.68 169.241C130.52 170.07 130.934 171.086 130.934 172.299C130.934 173.512 130.509 174.528 129.68 175.357ZM125.046 173.916C125.461 174.341 125.99 174.548 126.622 174.548C127.254 174.548 127.783 174.341 128.198 173.916C128.623 173.491 128.83 172.952 128.83 172.299C128.83 171.646 128.623 171.107 128.198 170.692C127.773 170.267 127.244 170.06 126.622 170.06C126 170.06 125.471 170.267 125.046 170.692C124.632 171.117 124.424 171.656 124.424 172.299C124.414 172.952 124.621 173.491 125.046 173.916Z" fill="white"/>
<path d="M139.351 175.357C138.512 176.186 137.496 176.601 136.293 176.601C135.091 176.601 134.065 176.186 133.235 175.357C132.406 174.528 131.991 173.512 131.991 172.299C131.991 171.096 132.406 170.081 133.235 169.241C134.065 168.412 135.08 167.997 136.293 167.997C137.496 167.997 138.522 168.412 139.351 169.241C140.191 170.07 140.605 171.086 140.605 172.299C140.605 173.512 140.191 174.528 139.351 175.357ZM134.718 173.916C135.132 174.341 135.661 174.548 136.293 174.548C136.926 174.548 137.454 174.341 137.869 173.916C138.294 173.491 138.501 172.952 138.501 172.299C138.501 171.646 138.294 171.107 137.869 170.692C137.444 170.267 136.915 170.06 136.293 170.06C135.671 170.06 135.143 170.267 134.718 170.692C134.303 171.117 134.096 171.656 134.096 172.299C134.096 172.952 134.303 173.491 134.718 173.916Z" fill="white"/>
<path d="M144.192 169.635C144.389 169.117 144.71 168.723 145.156 168.463C145.602 168.204 146.11 168.07 146.659 168.07V170.412C146.016 170.34 145.446 170.464 144.938 170.806C144.431 171.148 144.182 171.698 144.182 172.485V176.383H142.077V168.235H144.182V169.635H144.192Z" fill="white"/>
<path d="M254.174 153.329H257.636V154.262H253.189V146.809H257.584V147.742H254.174V150.033H257.315V150.956H254.174V153.329Z" fill="white"/>
<path d="M263.348 154.262H262.259L260.766 152.251L259.274 154.262H258.185L260.227 151.526L258.31 148.945H259.409L260.777 150.79L262.156 148.945H263.244L261.326 151.526L263.348 154.262Z" fill="white"/>
<path d="M267.152 148.8C267.898 148.8 268.53 149.069 269.059 149.618C269.588 150.157 269.847 150.821 269.847 151.609C269.847 152.386 269.588 153.05 269.059 153.599C268.53 154.138 267.898 154.418 267.152 154.418C266.271 154.418 265.597 154.065 265.141 153.36V156.408H264.218V148.955H265.141V149.867C265.597 149.152 266.271 148.8 267.152 148.8ZM267.038 153.506C267.566 153.506 268.012 153.319 268.375 152.956C268.738 152.593 268.914 152.137 268.914 151.598C268.914 151.059 268.738 150.603 268.375 150.24C268.012 149.878 267.566 149.691 267.038 149.691C266.499 149.691 266.043 149.878 265.69 150.24C265.327 150.603 265.151 151.059 265.151 151.598C265.151 152.137 265.327 152.593 265.69 152.956C266.043 153.329 266.499 153.506 267.038 153.506Z" fill="white"/>
<path d="M271.423 147.97C271.246 147.97 271.091 147.908 270.977 147.794C270.863 147.68 270.801 147.525 270.801 147.359C270.801 147.193 270.863 147.037 270.977 146.913C271.091 146.789 271.246 146.726 271.423 146.726C271.588 146.726 271.734 146.789 271.858 146.913C271.982 147.037 272.034 147.182 272.034 147.359C272.034 147.535 271.972 147.68 271.858 147.794C271.744 147.908 271.588 147.97 271.423 147.97ZM270.956 154.262V148.934H271.879V154.262H270.956Z" fill="white"/>
<path d="M274.221 149.836C274.522 149.173 275.082 148.841 275.88 148.841V149.805C275.424 149.784 275.04 149.909 274.709 150.168C274.387 150.427 274.221 150.852 274.221 151.432V154.252H273.299V148.924H274.221V149.836Z" fill="white"/>
<path d="M280.617 148.945H281.612L279.435 154.594C279.207 155.195 278.886 155.662 278.482 155.973C278.077 156.284 277.601 156.429 277.072 156.398V155.537C277.725 155.589 278.202 155.226 278.502 154.449L278.606 154.252L276.284 148.945H277.279L279.052 153.029L280.617 148.945Z" fill="white"/>
<path d="M288.049 146.809C289.065 146.809 289.905 147.172 290.579 147.887C291.252 148.603 291.584 149.494 291.584 150.531C291.584 151.578 291.252 152.459 290.579 153.174C289.905 153.899 289.065 154.252 288.049 154.252H285.147V146.799H288.049V146.809ZM288.049 153.329C288.806 153.329 289.428 153.06 289.915 152.531C290.402 152.003 290.641 151.339 290.641 150.541C290.641 149.743 290.402 149.079 289.915 148.551C289.428 148.022 288.816 147.753 288.049 147.753H286.132V153.329H288.049Z" fill="white"/>
<path d="M297.099 148.945H298.021V154.273H297.099V153.36C296.632 154.065 295.969 154.418 295.088 154.418C294.341 154.418 293.709 154.148 293.18 153.599C292.652 153.06 292.393 152.396 292.393 151.609C292.393 150.831 292.652 150.168 293.18 149.618C293.709 149.079 294.341 148.8 295.088 148.8C295.969 148.8 296.643 149.152 297.099 149.857V148.945ZM295.212 153.506C295.751 153.506 296.207 153.319 296.56 152.956C296.923 152.593 297.099 152.137 297.099 151.598C297.099 151.059 296.923 150.603 296.56 150.24C296.197 149.878 295.751 149.691 295.212 149.691C294.684 149.691 294.227 149.878 293.875 150.24C293.512 150.603 293.336 151.059 293.336 151.598C293.336 152.137 293.512 152.593 293.875 152.956C294.227 153.329 294.673 153.506 295.212 153.506Z" fill="white"/>
<path d="M302.334 149.836H300.913V152.718C300.913 152.977 300.965 153.163 301.069 153.278C301.173 153.392 301.328 153.443 301.546 153.443C301.763 153.443 302.023 153.443 302.334 153.433V154.262C301.525 154.366 300.934 154.304 300.561 154.065C300.188 153.827 300.001 153.381 300.001 152.718V149.836H298.944V148.945H300.001V147.732L300.924 147.452V148.945H302.344V149.836H302.334Z" fill="white"/>
<path d="M303.816 152.023C303.909 152.5 304.127 152.873 304.469 153.132C304.811 153.392 305.236 153.526 305.744 153.526C306.449 153.526 306.957 153.267 307.278 152.749L308.066 153.195C307.548 153.993 306.77 154.397 305.723 154.397C304.873 154.397 304.189 154.138 303.66 153.599C303.132 153.07 302.873 152.396 302.873 151.588C302.873 150.79 303.132 150.116 303.65 149.587C304.168 149.059 304.842 148.789 305.661 148.789C306.438 148.789 307.081 149.069 307.568 149.618C308.066 150.168 308.304 150.831 308.304 151.609C308.304 151.743 308.294 151.878 308.273 152.023H303.816ZM305.651 149.67C305.153 149.67 304.738 149.815 304.417 150.095C304.096 150.375 303.888 150.748 303.816 151.215H307.371C307.288 150.707 307.091 150.323 306.77 150.064C306.449 149.805 306.076 149.67 305.651 149.67Z" fill="white"/>
<path d="M260.756 174.973C259.989 176.051 258.901 176.59 257.512 176.59C256.123 176.59 255.044 176.051 254.267 174.973C253.5 173.895 253.106 172.465 253.106 170.671C253.106 168.878 253.49 167.447 254.267 166.369C255.034 165.291 256.123 164.752 257.512 164.752C258.901 164.752 259.979 165.291 260.756 166.369C261.523 167.447 261.917 168.878 261.917 170.671C261.917 172.465 261.534 173.895 260.756 174.973ZM255.387 173.947C255.884 174.714 256.599 175.108 257.522 175.108C258.445 175.108 259.16 174.724 259.668 173.947C260.176 173.18 260.424 172.081 260.424 170.671C260.424 169.262 260.176 168.163 259.668 167.385C259.16 166.608 258.445 166.224 257.522 166.224C256.599 166.224 255.884 166.608 255.387 167.385C254.889 168.152 254.64 169.251 254.64 170.671C254.64 172.081 254.889 173.18 255.387 173.947Z" fill="white"/>
<path d="M263.026 176.373V175.139L267.048 171.034C268.126 169.956 268.665 169.033 268.665 168.266C268.665 167.624 268.468 167.126 268.074 166.763C267.68 166.401 267.204 166.224 266.644 166.224C265.566 166.224 264.788 166.732 264.301 167.758L263.026 167.012C263.389 166.276 263.887 165.716 264.519 165.333C265.151 164.949 265.856 164.763 266.634 164.763C267.587 164.763 268.416 165.074 269.121 165.706C269.826 166.338 270.179 167.178 270.179 168.246C270.179 169.396 269.505 170.651 268.147 172.008L265.234 174.901H270.386V176.362H263.026V176.373Z" fill="white"/>
<path d="M272.49 177.979L271.64 178L278.16 163.363L279.01 163.343L272.49 177.979Z" fill="white"/>
<path d="M284.763 169.645C285.634 169.811 286.349 170.184 286.899 170.775C287.459 171.366 287.728 172.102 287.728 173.004C287.728 174.113 287.344 174.983 286.588 175.626C285.831 176.269 284.909 176.59 283.82 176.59C282.949 176.59 282.182 176.393 281.508 175.999C280.835 175.605 280.358 175.035 280.078 174.279L281.353 173.532C281.685 174.59 282.514 175.108 283.83 175.108C284.535 175.108 285.116 174.921 285.562 174.558C286.007 174.196 286.225 173.677 286.225 173.014C286.225 172.351 286.007 171.832 285.562 171.459C285.116 171.086 284.535 170.899 283.83 170.899H283.437L282.835 169.966L285.479 166.401H280.41V164.98H287.251L287.241 166.307L284.763 169.645Z" fill="white"/>
<path d="M296.705 174.973C295.938 176.051 294.849 176.59 293.46 176.59C292.071 176.59 290.993 176.051 290.216 174.973C289.449 173.895 289.055 172.465 289.055 170.671C289.055 168.878 289.438 167.447 290.216 166.369C290.983 165.291 292.071 164.752 293.46 164.752C294.849 164.752 295.927 165.291 296.705 166.369C297.472 167.447 297.866 168.878 297.866 170.671C297.866 172.465 297.482 173.895 296.705 174.973ZM291.335 173.947C291.833 174.714 292.548 175.108 293.471 175.108C294.393 175.108 295.109 174.724 295.616 173.947C296.124 173.18 296.373 172.081 296.373 170.671C296.373 169.262 296.124 168.163 295.616 167.385C295.109 166.608 294.393 166.224 293.471 166.224C292.548 166.224 291.833 166.608 291.335 167.385C290.838 168.152 290.589 169.251 290.589 170.671C290.579 172.081 290.827 173.18 291.335 173.947Z" fill="white"/>
<path d="M319.696 25.1867H316.234C315.156 25.1867 314.358 25.4873 313.881 26.5446L307.226 41.6373H311.932C311.932 41.6373 312.71 39.6056 312.876 39.1702H318.618C318.753 39.7507 319.157 41.6373 319.157 41.6373H323.324L319.696 25.1867ZM314.171 35.8013C314.545 34.858 315.944 31.1989 315.944 31.1989C315.944 31.1885 316.327 30.2349 316.545 29.6337L316.846 31.0538C316.846 31.0538 317.706 34.9721 317.882 35.8117H314.171V35.8013Z" fill="white"/>
<path d="M301.245 29.7476C301.235 30.5251 302.199 31.033 303.774 31.7897C306.355 32.9714 307.558 34.3812 307.537 36.2678C307.506 39.6781 304.448 41.886 299.721 41.886C297.71 41.8653 295.772 41.4611 294.725 41.005L295.357 37.3147L295.938 37.5842C297.399 38.1958 298.363 38.4446 300.157 38.4446C301.442 38.4446 302.821 37.9367 302.831 36.8379C302.841 36.1123 302.251 35.594 300.509 34.7854C298.799 33.9976 296.549 32.6812 296.57 30.3178C296.591 27.1251 299.721 24.886 304.148 24.886C305.889 24.886 307.288 25.2489 308.169 25.5806L307.558 29.1464L307.154 28.9598C306.324 28.6281 305.257 28.3068 303.795 28.3275C302.064 28.3275 301.245 29.0635 301.245 29.7476Z" fill="white"/>
<path d="M294.725 25.1763L291.916 41.6269H287.438L290.237 25.1763H294.725Z" fill="white"/>
<path d="M278.616 33.6452C277.124 29.8409 273.548 26.6794 268.126 25.3629L268.188 25.0312H275.144C276.087 25.0623 276.844 25.3629 277.103 26.3684L278.616 33.6452Z" fill="white"/>
<path d="M288.433 25.1867L281.363 41.6166H276.626L272.615 27.9025C275.496 29.7477 277.953 32.6812 278.824 34.7233L279.301 36.4233L283.696 25.1971H288.433V25.1867Z" fill="white"/>
<path d="M52.5134 143.66H20.0374C17.9565 143.66 16.2485 141.726 16.2485 139.371V112.153C16.2485 109.798 17.9565 107.865 20.0374 107.865H52.5134C54.5942 107.865 56.3022 109.798 56.3022 112.153V139.371C56.3022 141.726 54.5942 143.66 52.5134 143.66Z" fill="#F6C859"/>
<path d="M31.6567 138.883C31.4883 138.883 31.3199 138.774 31.2477 138.597C31.1274 138.339 31.2236 138.025 31.4522 137.889C32.1258 137.494 33.0399 136.773 33.5691 135.507C34.2427 133.9 34.0623 132.157 33.7856 132.007C33.7135 131.966 33.4368 132.13 33.2684 132.225C32.8354 132.484 32.222 132.824 31.5244 132.552C30.8388 132.28 30.502 131.585 30.3456 131.258C29.2991 129.08 28.9744 123.416 30.081 120.598C30.4538 119.658 30.947 119.113 31.5725 118.95C32.21 118.787 32.7272 119.086 33.1361 119.331C33.4729 119.536 33.6533 119.617 33.7496 119.549C34.1826 119.25 34.1705 117.452 33.5691 116.023C33.0399 114.757 32.1258 114.035 31.4522 113.64C31.2236 113.504 31.1395 113.191 31.2477 112.932C31.368 112.673 31.6446 112.578 31.8732 112.701C32.667 113.164 33.7616 114.035 34.3991 115.573C35.0366 117.085 35.3373 119.685 34.2187 120.448C33.6533 120.829 33.1241 120.516 32.6911 120.271C32.3663 120.08 32.0656 119.903 31.7649 119.985C31.356 120.094 31.0793 120.625 30.9109 121.047C29.9366 123.498 30.2133 128.862 31.1395 130.782C31.2958 131.109 31.4883 131.463 31.813 131.585C32.1258 131.708 32.4144 131.558 32.8354 131.313C33.2444 131.081 33.7014 130.809 34.1826 131.081C35.217 131.653 35.1569 134.186 34.3991 135.983C33.7616 137.508 32.667 138.393 31.8732 138.856C31.801 138.87 31.7288 138.883 31.6567 138.883Z" fill="#7D662D"/>
<path d="M30.2734 121.548H21.9259C21.6733 121.548 21.4568 121.316 21.4568 121.017C21.4568 120.717 21.6613 120.486 21.9259 120.486H30.2734C30.526 120.486 30.7425 120.717 30.7425 121.017C30.7425 121.316 30.526 121.548 30.2734 121.548Z" fill="#7D662D"/>
<path d="M30.2734 131.012H21.9259C21.6733 131.012 21.4568 130.781 21.4568 130.481C21.4568 130.182 21.6613 129.95 21.9259 129.95H30.2734C30.526 129.95 30.7425 130.182 30.7425 130.481C30.7425 130.781 30.526 131.012 30.2734 131.012Z" fill="#7D662D"/>
<path d="M41.3994 138.88C41.3273 138.88 41.2551 138.866 41.1829 138.826C40.3891 138.363 39.2945 137.491 38.657 135.953C37.8992 134.156 37.8391 131.623 38.8735 131.051C39.3547 130.792 39.8117 131.051 40.2207 131.283C40.6417 131.528 40.9303 131.677 41.2431 131.555C41.5919 131.419 41.7964 130.997 41.9166 130.752C42.8428 128.832 43.1195 123.481 42.1452 121.017C41.9768 120.595 41.6881 120.064 41.2912 119.955C41.0386 119.887 40.8822 119.601 40.9424 119.328C41.0025 119.042 41.2551 118.879 41.4957 118.933C42.1211 119.097 42.6143 119.655 42.9871 120.595C44.0937 123.413 43.781 129.077 42.7225 131.255C42.5662 131.582 42.2294 132.277 41.5438 132.549C40.8461 132.821 40.2327 132.481 39.7997 132.222C39.6313 132.127 39.3426 131.963 39.2825 132.004C39.0058 132.154 38.8254 133.897 39.499 135.503C40.0282 136.77 40.9424 137.491 41.6159 137.886C41.8445 138.022 41.9287 138.335 41.8204 138.594C41.7362 138.771 41.5678 138.88 41.3994 138.88Z" fill="#7D662D"/>
<path d="M39.5471 119.452C39.3546 119.452 39.1742 119.316 39.102 119.098C38.1037 115.721 40.4371 113.121 41.1829 112.685C41.4114 112.549 41.6881 112.658 41.8083 112.917C41.9286 113.175 41.8324 113.488 41.6039 113.625C41.2671 113.815 39.1261 115.898 39.9801 118.771C40.0643 119.044 39.932 119.343 39.6914 119.438C39.6433 119.438 39.5952 119.452 39.5471 119.452Z" fill="#7D662D"/>
<path d="M51.1422 121.548H42.7947C42.5421 121.548 42.3256 121.316 42.3256 121.017C42.3256 120.717 42.53 120.486 42.7947 120.486H51.1422C51.3948 120.486 51.6113 120.717 51.6113 121.017C51.6113 121.316 51.4068 121.548 51.1422 121.548Z" fill="#7D662D"/>
<path d="M51.1422 131.012H42.7947C42.5421 131.012 42.3256 130.781 42.3256 130.481C42.3256 130.182 42.53 129.95 42.7947 129.95H51.1422C51.3948 129.95 51.6113 130.182 51.6113 130.481C51.6113 130.781 51.4068 131.012 51.1422 131.012Z" fill="#7D662D"/>
</g>
<defs>
<clipPath id="clip0_0_4">
<rect y="0.886002" width="347.324" height="201.114" rx="12" fill="white"/>
</clipPath>
</defs>
</svg>
