<svg width="36" height="28" viewBox="0 0 36 28" fill="none" xmlns="http://www.w3.org/2000/svg">
<path d="M35.9224 4.14351L35.9332 23.5016C35.9332 25.7854 34.069 27.656 31.8037 27.656L5.16239 27.6778C2.87544 27.6778 1.0112 25.8072 1.0112 23.5342L0.989521 4.17613C0.989521 1.88143 2.85376 0.0217507 5.12987 0.0217507L31.782 0C34.0581 0 35.9224 1.84881 35.9224 4.14351Z" fill="#F6C859"/>
<path d="M14.4619 23.9801C14.3102 23.9801 14.1693 23.904 14.1042 23.7626C14.0067 23.5669 14.0826 23.3167 14.2777 23.2189C14.8629 22.9144 15.6542 22.3488 16.1202 21.3809C16.7055 20.1411 16.5538 18.7926 16.3045 18.673C16.2394 18.6403 16.001 18.7708 15.8493 18.847C15.4699 19.0427 14.9388 19.3146 14.3319 19.0971C13.7357 18.8905 13.4431 18.3576 13.3022 18.0966C12.3809 16.4109 12.0991 12.039 13.0637 9.86394C13.3889 9.14616 13.8224 8.71115 14.3644 8.58065C14.9171 8.45014 15.3724 8.67852 15.73 8.87428C16.0227 9.02654 16.1744 9.09179 16.272 9.03741C16.6513 8.80903 16.6405 7.41698 16.1094 6.31857C15.6433 5.33979 14.8521 4.77428 14.2668 4.48064C14.0717 4.38276 13.985 4.13263 14.0934 3.93687C14.191 3.74112 14.4402 3.65412 14.6353 3.76287C15.329 4.12176 16.2828 4.79603 16.8356 5.98144C17.3883 7.1451 17.6485 9.15704 16.6838 9.74431C16.1961 10.0379 15.73 9.79869 15.3615 9.6138C15.0797 9.47242 14.8088 9.33105 14.5486 9.3963C14.191 9.4833 13.9525 9.88569 13.8008 10.2119C12.9553 12.1151 13.2046 16.2478 14.0067 17.7268C14.1476 17.9769 14.3102 18.2488 14.592 18.3467C14.8629 18.4446 15.1231 18.325 15.4807 18.1401C15.8384 17.9552 16.2286 17.7594 16.6513 17.9552C17.5618 18.4011 17.4967 20.3478 16.8464 21.7398C16.2828 22.9252 15.3398 23.5995 14.6462 23.9584C14.5811 23.9693 14.5161 23.9801 14.4619 23.9801Z" fill="#7D662D"/>
<path d="M13.2372 10.5926H5.96444C5.73683 10.5926 5.56342 10.4077 5.56342 10.1902C5.56342 9.97269 5.73683 9.78781 5.95361 9.78781H13.2263C13.4539 9.78781 13.6273 9.97269 13.6273 10.1902C13.6382 10.4077 13.4648 10.5926 13.2372 10.5926Z" fill="#7D662D"/>
<path d="M13.2372 17.9008H5.96444C5.73683 17.9008 5.56342 17.7159 5.56342 17.4984C5.56342 17.2701 5.74767 17.096 5.96444 17.096H13.2372C13.4648 17.096 13.6382 17.2809 13.6382 17.4984C13.649 17.7159 13.4648 17.9008 13.2372 17.9008Z" fill="#7D662D"/>
<path d="M22.9486 23.9693C22.8835 23.9693 22.8185 23.9584 22.7643 23.9258C22.0706 23.5669 21.1168 22.8926 20.5641 21.7072C19.9029 20.3151 19.8487 18.3685 20.7483 17.9226C21.171 17.7159 21.5721 17.9226 21.9189 18.0966C22.2874 18.2815 22.5475 18.4011 22.8077 18.3032C23.1111 18.1945 23.2846 17.8791 23.3929 17.6833C24.195 16.2043 24.4334 12.0608 23.588 10.1684C23.4363 9.84219 23.1978 9.42892 22.8402 9.3528C22.6234 9.29842 22.4825 9.08091 22.5367 8.8634C22.5909 8.6459 22.8077 8.51539 23.0244 8.55889C23.5664 8.6894 23.9999 9.11354 24.3251 9.83131C25.3005 12.0064 25.0187 16.3891 24.0975 18.0639C23.9565 18.325 23.6639 18.8578 23.0678 19.0645C22.4608 19.282 21.9297 19.0101 21.5504 18.8143C21.3986 18.7382 21.1602 18.6186 21.0952 18.6403C20.8567 18.76 20.6941 20.1085 21.2902 21.3483C21.7563 22.3271 22.5475 22.8926 23.1328 23.1862C23.3279 23.2841 23.4146 23.5342 23.3062 23.73C23.2412 23.8931 23.1003 23.9693 22.9486 23.9693Z" fill="#7D662D"/>
<path d="M21.3228 8.96128C21.1493 8.96128 20.9976 8.85253 20.9434 8.6894C20.0763 6.07932 22.1031 4.06738 22.7535 3.74112C22.9486 3.63236 23.1978 3.71937 23.2954 3.91512C23.3929 4.11088 23.3171 4.36101 23.122 4.45889C22.8293 4.61114 20.9651 6.20982 21.7021 8.42839C21.778 8.6459 21.6588 8.87428 21.442 8.93953C21.4095 8.96128 21.3661 8.96128 21.3228 8.96128Z" fill="#7D662D"/>
<path d="M31.4352 10.5817H24.1625C23.9349 10.5817 23.7615 10.3968 23.7615 10.1793C23.7615 9.96181 23.9457 9.77693 24.1625 9.77693H31.4352C31.6628 9.77693 31.8362 9.96181 31.8362 10.1793C31.8362 10.3968 31.652 10.5817 31.4352 10.5817Z" fill="#7D662D"/>
<path d="M31.4352 17.8791H24.1625C23.9349 17.8791 23.7615 17.6942 23.7615 17.4767C23.7615 17.2483 23.9457 17.0743 24.1625 17.0743H31.4352C31.6628 17.0743 31.8362 17.2592 31.8362 17.4767C31.8362 17.7051 31.6628 17.8791 31.4352 17.8791Z" fill="#7D662D"/>
</svg>
