<svg width="353" height="224" viewBox="0 0 353 224" fill="none" xmlns="http://www.w3.org/2000/svg">
<path d="M352.935 21.8422V202.902C352.935 214.55 343.485 224 331.838 224H21.3421C9.69491 224.01 0.244507 214.56 0.244507 202.913V21.8422C0.244507 10.195 9.69491 0.744629 21.3421 0.744629H331.838C336.003 0.744629 339.899 1.95701 343.174 4.06056C349.06 7.79098 352.935 14.3607 352.935 21.8422Z" fill="url(#paint0_linear_0_337)"/>
<path d="M35.984 95.1761V96.9584L33.4556 96.8444L34.9271 98.8755L33.3417 99.8184L32.0878 97.5387L30.834 99.8184L29.2796 98.8755L30.7304 96.8444L28.2227 96.9584V95.1761L30.7304 95.3108L29.2796 93.2487L30.834 92.3058L32.0878 94.5855L33.3417 92.3058L34.9271 93.2487L33.4556 95.3108L35.984 95.1761Z" fill="white"/>
<path d="M49.0301 95.1761V96.9584L46.5017 96.8444L47.9732 98.8755L46.3877 99.8184L45.1339 97.5387L43.8801 99.8184L42.3257 98.8755L43.7764 96.8444L41.2688 96.9584V95.1761L43.7764 95.3108L42.3257 93.2487L43.8801 92.3058L45.1339 94.5855L46.3877 92.3058L47.9732 93.2487L46.5017 95.3108L49.0301 95.1761Z" fill="white"/>
<path d="M62.0763 95.1761V96.9584L59.5479 96.8444L61.0193 98.8755L59.4339 99.8184L58.18 97.5387L56.9262 99.8184L55.3719 98.8755L56.8226 96.8444L54.3149 96.9584V95.1761L56.8226 95.3108L55.3719 93.2487L56.9262 92.3058L58.18 94.5855L59.4339 92.3058L61.0193 93.2487L59.5479 95.3108L62.0763 95.1761Z" fill="white"/>
<path d="M75.1223 95.1761V96.9584L72.5939 96.8444L74.0654 98.8755L72.48 99.8184L71.2261 97.5387L69.9723 99.8184L68.4179 98.8755L69.8687 96.8444L67.361 96.9584V95.1761L69.8687 95.3108L68.4179 93.2487L69.9723 92.3058L71.2261 94.5855L72.48 92.3058L74.0654 93.2487L72.5939 95.3108L75.1223 95.1761Z" fill="white"/>
<path d="M97.2147 95.1761V96.9584L94.6863 96.8444L96.1578 98.8755L94.5723 99.8184L93.3185 97.5387L92.0647 99.8184L90.5103 98.8755L91.961 96.8444L89.4534 96.9584V95.1761L91.961 95.3108L90.5103 93.2487L92.0647 92.3058L93.3185 94.5855L94.5723 92.3058L96.1578 93.2487L94.6863 95.3108L97.2147 95.1761Z" fill="white"/>
<path d="M110.261 95.1761V96.9584L107.732 96.8444L109.204 98.8755L107.618 99.8184L106.365 97.5387L105.111 99.8184L103.556 98.8755L105.007 96.8444L102.5 96.9584V95.1761L105.007 95.3108L103.556 93.2487L105.111 92.3058L106.365 94.5855L107.618 92.3058L109.204 93.2487L107.732 95.3108L110.261 95.1761Z" fill="white"/>
<path d="M123.317 95.1761V96.9584L120.789 96.8444L122.26 98.8755L120.675 99.8184L119.421 97.5387L118.167 99.8184L116.613 98.8755L118.064 96.8444L115.556 96.9584V95.1761L118.064 95.3108L116.613 93.2487L118.167 92.3058L119.421 94.5855L120.675 92.3058L122.26 93.2487L120.789 95.3108L123.317 95.1761Z" fill="white"/>
<path d="M136.363 95.1761V96.9584L133.835 96.8444L135.306 98.8755L133.721 99.8184L132.467 97.5387L131.213 99.8184L129.659 98.8755L131.11 96.8444L128.602 96.9584V95.1761L131.11 95.3108L129.659 93.2487L131.213 92.3058L132.467 94.5855L133.721 92.3058L135.306 93.2487L133.835 95.3108L136.363 95.1761Z" fill="white"/>
<path d="M158.456 95.1761V96.9584L155.927 96.8444L157.399 98.8755L155.813 99.8184L154.56 97.5387L153.306 99.8184L151.751 98.8755L153.202 96.8444L150.694 96.9584V95.1761L153.202 95.3108L151.751 93.2487L153.306 92.3058L154.56 94.5855L155.813 92.3058L157.399 93.2487L155.927 95.3108L158.456 95.1761Z" fill="white"/>
<path d="M171.502 95.1761V96.9584L168.974 96.8444L170.445 98.8755L168.86 99.8184L167.606 97.5387L166.352 99.8184L164.798 98.8755L166.248 96.8444L163.741 96.9584V95.1761L166.248 95.3108L164.798 93.2487L166.352 92.3058L167.606 94.5855L168.86 92.3058L170.445 93.2487L168.974 95.3108L171.502 95.1761Z" fill="white"/>
<path d="M184.548 95.1761V96.9584L182.02 96.8444L183.491 98.8755L181.906 99.8184L180.652 97.5387L179.398 99.8184L177.844 98.8755L179.294 96.8444L176.787 96.9584V95.1761L179.294 95.3108L177.844 93.2487L179.398 92.3058L180.652 94.5855L181.906 92.3058L183.491 93.2487L182.02 95.3108L184.548 95.1761Z" fill="white"/>
<path d="M197.594 95.1761V96.9584L195.066 96.8444L196.537 98.8755L194.952 99.8184L193.698 97.5387L192.444 99.8184L190.89 98.8755L192.341 96.8444L189.833 96.9584V95.1761L192.341 95.3108L190.89 93.2487L192.444 92.3058L193.698 94.5855L194.952 92.3058L196.537 93.2487L195.066 95.3108L197.594 95.1761Z" fill="white"/>
<path d="M211.314 112.15V110.036L218.184 103.02C220.018 101.186 220.94 99.6112 220.94 98.2952C220.94 97.1968 220.609 96.3471 219.935 95.7357C219.272 95.1243 218.453 94.8134 217.49 94.8134C215.656 94.8134 214.319 95.6839 213.48 97.4247L211.314 96.1502C211.925 94.886 212.775 93.9326 213.863 93.2798C214.951 92.627 216.153 92.3058 217.469 92.3058C219.096 92.3058 220.516 92.8446 221.728 93.9223C222.93 95 223.541 96.4403 223.541 98.2641C223.541 100.233 222.381 102.378 220.07 104.699L215.106 109.652H223.914V112.16H211.314V112.15Z" fill="white"/>
<path d="M235.562 100.648C237.043 100.928 238.266 101.57 239.209 102.575C240.152 103.581 240.629 104.845 240.629 106.389C240.629 108.285 239.976 109.777 238.681 110.865C237.385 111.964 235.81 112.502 233.955 112.502C232.474 112.502 231.158 112.16 230.007 111.487C228.857 110.813 228.039 109.829 227.562 108.554L229.728 107.28C230.298 109.083 231.717 109.974 233.955 109.974C235.157 109.974 236.142 109.663 236.909 109.031C237.665 108.399 238.049 107.518 238.049 106.389C238.049 105.259 237.665 104.368 236.909 103.736C236.152 103.093 235.168 102.772 233.955 102.772H233.292L232.266 101.187L236.774 95.0938H228.121V92.669H239.81L239.8 94.9384L235.562 100.648Z" fill="white"/>
<path d="M259.861 106.026V108.44H257.499V112.14H254.908V108.44H244.981V106.026L251.965 92.669H254.742L247.758 106.026H254.908V100.513H257.499V106.026H259.861Z" fill="white"/>
<path d="M270.037 100.265C271.871 100.265 273.425 100.803 274.7 101.891C275.974 102.98 276.607 104.472 276.607 106.389C276.607 108.285 275.954 109.777 274.658 110.865C273.363 111.964 271.788 112.502 269.933 112.502C268.451 112.502 267.125 112.15 265.954 111.435C264.783 110.72 263.965 109.684 263.509 108.337L265.705 107.083C265.965 108.026 266.462 108.751 267.208 109.238C267.954 109.725 268.856 109.974 269.933 109.974C271.156 109.974 272.151 109.663 272.907 109.031C273.664 108.399 274.047 107.518 274.047 106.389C274.047 105.259 273.664 104.368 272.907 103.736C272.151 103.093 271.177 102.772 269.985 102.772H264.483L265.177 92.669H275.861V95.0938H267.54L267.198 100.265H270.037Z" fill="white"/>
<path d="M29.8599 165.339C28.7201 165.339 27.7875 164.966 27.0414 164.21C26.3057 163.464 25.9326 162.531 25.9326 161.443C25.9326 160.355 26.3057 159.422 27.0414 158.676C27.7771 157.93 28.7201 157.547 29.8599 157.547C30.5438 157.547 31.1759 157.712 31.7562 158.044C32.3365 158.376 32.7821 158.821 33.1033 159.37L32.2329 159.878C32.0153 159.464 31.694 159.132 31.2692 158.883C30.8443 158.635 30.3677 158.51 29.8599 158.51C28.9895 158.51 28.2849 158.79 27.7357 159.35C27.1865 159.909 26.917 160.604 26.917 161.443C26.917 162.272 27.1865 162.966 27.7357 163.526C28.2849 164.085 28.9895 164.365 29.8599 164.365C30.378 164.365 30.8443 164.241 31.2692 163.992C31.694 163.743 32.0153 163.422 32.2329 163.008L33.1033 163.505C32.7924 164.065 32.3365 164.51 31.7666 164.842C31.1863 165.173 30.5542 165.339 29.8599 165.339Z" fill="white"/>
<path d="M38.5539 159.837H39.4865V165.204H38.5539V164.282C38.0876 164.987 37.414 165.349 36.5229 165.349C35.7768 165.349 35.1343 165.08 34.6058 164.531C34.0774 163.982 33.808 163.318 33.808 162.531C33.808 161.743 34.0774 161.08 34.6058 160.531C35.1343 159.982 35.7768 159.712 36.5229 159.712C37.414 159.712 38.0876 160.065 38.5539 160.78V159.837ZM36.6472 164.438C37.1861 164.438 37.642 164.251 38.015 163.888C38.3881 163.526 38.5642 163.059 38.5642 162.521C38.5642 161.982 38.3777 161.526 38.015 161.153C37.6524 160.78 37.1964 160.604 36.6472 160.604C36.1084 160.604 35.6628 160.79 35.3001 161.153C34.9374 161.526 34.7509 161.982 34.7509 162.521C34.7509 163.07 34.9374 163.526 35.3001 163.888C35.6628 164.261 36.1084 164.438 36.6472 164.438Z" fill="white"/>
<path d="M41.8387 160.738C42.1496 160.075 42.6988 159.743 43.5174 159.743V160.717C43.0615 160.697 42.6677 160.821 42.3361 161.08C42.0045 161.35 41.8387 161.774 41.8387 162.355V165.204H40.9061V159.837H41.8387V160.738Z" fill="white"/>
<path d="M48.5846 157.692H49.5172V165.204H48.5846V164.282C48.1183 164.987 47.4447 165.349 46.5536 165.349C45.8075 165.349 45.165 165.08 44.6365 164.531C44.1081 163.982 43.8387 163.318 43.8387 162.531C43.8387 161.743 44.1081 161.08 44.6365 160.531C45.165 159.982 45.8075 159.712 46.5536 159.712C47.4447 159.712 48.1183 160.065 48.5846 160.78V157.692ZM46.6676 164.438C47.2064 164.438 47.6623 164.251 48.0354 163.888C48.4084 163.526 48.5846 163.059 48.5846 162.521C48.5846 161.982 48.3981 161.526 48.0354 161.153C47.6727 160.78 47.2168 160.604 46.6676 160.604C46.1287 160.604 45.6831 160.79 45.3205 161.153C44.9578 161.526 44.7713 161.982 44.7713 162.521C44.7713 163.07 44.9578 163.526 45.3205 163.888C45.6831 164.261 46.1391 164.438 46.6676 164.438Z" fill="white"/>
<path d="M58.3562 157.692H59.3406V165.204H58.3562V161.826H54.7087V165.204H53.7139V157.692H54.7087V160.883H58.3562V157.692Z" fill="white"/>
<path d="M65.3922 164.531C64.843 165.07 64.1695 165.349 63.3819 165.349C62.5944 165.349 61.9312 165.08 61.382 164.531C60.8328 163.982 60.5634 163.318 60.5634 162.521C60.5634 161.723 60.8328 161.059 61.382 160.51C61.9312 159.971 62.5944 159.692 63.3819 159.692C64.1695 159.692 64.843 159.961 65.3922 160.51C65.9414 161.059 66.2212 161.723 66.2212 162.521C66.2108 163.318 65.9414 163.982 65.3922 164.531ZM63.3819 164.427C63.9208 164.427 64.3663 164.241 64.7394 163.878C65.1021 163.515 65.2886 163.059 65.2886 162.51C65.2886 161.971 65.1021 161.515 64.7394 161.142C64.3767 160.78 63.9208 160.593 63.3819 160.593C62.8535 160.593 62.4079 160.78 62.0452 161.142C61.6825 161.505 61.496 161.961 61.496 162.51C61.496 163.059 61.6825 163.505 62.0452 163.878C62.4079 164.251 62.8535 164.427 63.3819 164.427Z" fill="white"/>
<path d="M67.3196 165.204V157.371H68.2522V165.204H67.3196Z" fill="white"/>
<path d="M74.1276 157.692H75.0602V165.204H74.1276V164.282C73.6613 164.987 72.9877 165.349 72.0966 165.349C71.3505 165.349 70.708 165.08 70.1795 164.531C69.6511 163.982 69.3817 163.318 69.3817 162.531C69.3817 161.743 69.6511 161.08 70.1795 160.531C70.708 159.982 71.3505 159.712 72.0966 159.712C72.9877 159.712 73.6613 160.065 74.1276 160.78V157.692ZM72.2106 164.438C72.7494 164.438 73.2053 164.251 73.5784 163.888C73.9514 163.526 74.1276 163.059 74.1276 162.521C74.1276 161.982 73.9411 161.526 73.5784 161.153C73.2157 160.78 72.7598 160.604 72.2106 160.604C71.6717 160.604 71.2261 160.79 70.8635 161.153C70.5008 161.526 70.3143 161.982 70.3143 162.521C70.3143 163.07 70.5008 163.526 70.8635 163.888C71.2261 164.261 71.6821 164.438 72.2106 164.438Z" fill="white"/>
<path d="M77.1327 162.945C77.2259 163.422 77.4435 163.795 77.7958 164.065C78.1378 164.324 78.573 164.458 79.0808 164.458C79.7854 164.458 80.3035 164.199 80.6248 163.671L81.4226 164.116C80.9045 164.925 80.117 165.329 79.06 165.329C78.2103 165.329 77.5161 165.059 76.9876 164.531C76.4591 164.002 76.1897 163.318 76.1897 162.51C76.1897 161.702 76.4488 161.028 76.9772 160.49C77.4953 159.951 78.1793 159.681 79.0082 159.681C79.7958 159.681 80.4382 159.961 80.9356 160.51C81.433 161.07 81.6817 161.733 81.6817 162.51C81.6817 162.645 81.6713 162.79 81.6506 162.925H77.1327V162.945ZM78.9875 160.572C78.4901 160.572 78.0756 160.718 77.744 160.997C77.4124 161.277 77.2156 161.66 77.1327 162.127H80.718C80.6351 161.619 80.4382 161.236 80.117 160.966C79.7958 160.707 79.4124 160.572 78.9875 160.572Z" fill="white"/>
<path d="M83.6713 160.738C83.9822 160.075 84.5313 159.743 85.35 159.743V160.717C84.894 160.697 84.5003 160.821 84.1687 161.08C83.8371 161.35 83.6713 161.774 83.6713 162.355V165.204H82.7387V159.837H83.6713V160.738Z" fill="white"/>
<path d="M91.6088 159.702C92.2409 159.702 92.7383 159.899 93.1217 160.303C93.5051 160.697 93.6916 161.236 93.6916 161.92V165.215H92.759V161.971C92.759 161.536 92.645 161.194 92.4067 160.956C92.1684 160.718 91.8471 160.593 91.4326 160.593C90.9663 160.593 90.5933 160.738 90.3031 161.028C90.013 161.319 89.8783 161.764 89.8783 162.365V165.215H88.9457V159.847H89.8783V160.624C90.2513 160.003 90.8316 159.702 91.6088 159.702Z" fill="white"/>
<path d="M99.4323 159.837H100.365V165.204H99.4323V164.282C98.966 164.987 98.2925 165.349 97.4013 165.349C96.6552 165.349 96.0128 165.08 95.4843 164.531C94.9558 163.982 94.6864 163.318 94.6864 162.531C94.6864 161.743 94.9558 161.08 95.4843 160.531C96.0128 159.982 96.6552 159.712 97.4013 159.712C98.2925 159.712 98.966 160.065 99.4323 160.78V159.837ZM97.5257 164.438C98.0645 164.438 98.5204 164.251 98.8935 163.888C99.2665 163.526 99.4427 163.059 99.4427 162.521C99.4427 161.982 99.2562 161.526 98.8935 161.153C98.5308 160.78 98.0749 160.604 97.5257 160.604C96.9868 160.604 96.5413 160.79 96.1786 161.153C95.8159 161.526 95.6294 161.982 95.6294 162.521C95.6294 163.07 95.8159 163.526 96.1786 163.888C96.5309 164.261 96.9868 164.438 97.5257 164.438Z" fill="white"/>
<path d="M107.577 159.702C108.178 159.702 108.665 159.899 109.038 160.282C109.411 160.676 109.598 161.205 109.598 161.868V165.204H108.665V161.899C108.665 161.484 108.561 161.163 108.344 160.935C108.126 160.707 107.846 160.593 107.484 160.593C107.08 160.593 106.758 160.728 106.52 160.997C106.282 161.267 106.157 161.671 106.157 162.23V165.215H105.225V161.909C105.225 161.495 105.121 161.173 104.914 160.945C104.707 160.718 104.437 160.604 104.085 160.604C103.691 160.604 103.36 160.738 103.101 161.008C102.841 161.277 102.707 161.692 102.707 162.23V165.215H101.774V159.847H102.707V160.562C103.069 159.992 103.608 159.702 104.303 159.702C105.028 159.702 105.556 160.003 105.878 160.614C106.271 160.003 106.831 159.702 107.577 159.702Z" fill="white"/>
<path d="M111.546 162.945C111.639 163.422 111.857 163.795 112.209 164.065C112.551 164.324 112.986 164.458 113.494 164.458C114.199 164.458 114.717 164.199 115.038 163.671L115.836 164.116C115.318 164.925 114.53 165.329 113.473 165.329C112.623 165.329 111.929 165.059 111.401 164.531C110.872 164.002 110.603 163.318 110.603 162.51C110.603 161.702 110.862 161.028 111.39 160.49C111.908 159.951 112.592 159.681 113.421 159.681C114.209 159.681 114.851 159.961 115.349 160.51C115.846 161.07 116.095 161.733 116.095 162.51C116.095 162.645 116.084 162.79 116.064 162.925H111.546V162.945ZM113.411 160.572C112.914 160.572 112.499 160.718 112.168 160.997C111.836 161.277 111.639 161.66 111.556 162.127H115.142C115.059 161.619 114.862 161.236 114.541 160.966C114.209 160.707 113.836 160.572 113.411 160.572Z" fill="white"/>
<path d="M33.9012 176.002H35.4245V187.493H34.1914L28.2849 178.903V187.493H26.7616V176.002H27.9429L33.9012 184.633V176.002Z" fill="white"/>
<path d="M44.6676 186.457C43.8283 187.286 42.8024 187.701 41.6004 187.701C40.3984 187.701 39.3725 187.286 38.5435 186.457C37.7042 185.629 37.2897 184.603 37.2897 183.39C37.2897 182.178 37.7042 181.152 38.5435 180.323C39.3829 179.494 40.3984 179.08 41.6004 179.08C42.8024 179.08 43.8283 179.494 44.6676 180.323C45.507 181.152 45.9318 182.178 45.9318 183.39C45.9318 184.603 45.5173 185.629 44.6676 186.457ZM41.6004 186.312C42.419 186.312 43.1133 186.033 43.6728 185.473C44.2324 184.913 44.5122 184.219 44.5122 183.39C44.5122 182.561 44.2324 181.867 43.6728 181.307C43.1133 180.748 42.4294 180.468 41.6004 180.468C40.7921 180.468 40.1082 180.748 39.5487 181.307C38.9891 181.867 38.7093 182.561 38.7093 183.39C38.7093 184.219 38.9891 184.913 39.5487 185.473C40.1082 186.033 40.7921 186.312 41.6004 186.312Z" fill="white"/>
<path d="M56.491 179.069C57.4132 179.069 58.1593 179.37 58.7189 179.96C59.2888 180.561 59.5686 181.359 59.5686 182.385V187.494H58.1386V182.437C58.1386 181.805 57.9728 181.307 57.6516 180.955C57.32 180.603 56.8848 180.427 56.3355 180.427C55.7242 180.427 55.2371 180.634 54.8641 181.038C54.5014 181.453 54.3149 182.074 54.3149 182.914V187.473H52.8849V182.416C52.8849 181.784 52.7295 181.287 52.4186 180.934C52.1077 180.582 51.6829 180.406 51.144 180.406C50.543 180.406 50.0456 180.613 49.6415 181.028C49.2477 181.442 49.0405 182.064 49.0405 182.903V187.463H47.6105V179.256H49.0405V180.354C49.6001 179.484 50.4187 179.038 51.486 179.038C52.5948 179.038 53.3927 179.504 53.9004 180.437C54.4807 179.535 55.3408 179.069 56.491 179.069Z" fill="white"/>
<path d="M68.3661 179.287H69.7961V187.494H68.3661V186.084C67.6511 187.172 66.6149 187.711 65.2575 187.711C64.1072 187.711 63.1332 187.297 62.3146 186.457C61.5063 185.618 61.1022 184.603 61.1022 183.39C61.1022 182.178 61.5063 181.162 62.3146 180.323C63.1228 179.484 64.1072 179.069 65.2575 179.069C66.6149 179.069 67.6511 179.608 68.3661 180.696V179.287ZM65.444 186.323C66.273 186.323 66.9672 186.043 67.5268 185.473C68.0864 184.903 68.3661 184.209 68.3661 183.38C68.3661 182.551 68.0864 181.846 67.5268 181.287C66.9672 180.727 66.273 180.437 65.444 180.437C64.6253 180.437 63.9311 180.717 63.3715 181.287C62.8119 181.846 62.5322 182.551 62.5322 183.38C62.5322 184.209 62.8119 184.913 63.3715 185.473C63.9311 186.043 64.615 186.323 65.444 186.323Z" fill="white"/>
<path d="M76.0446 179.069C77.0083 179.069 77.7751 179.37 78.3554 179.981C78.9357 180.592 79.2258 181.411 79.2258 182.447V187.483H77.7958V182.52C77.7958 181.857 77.6197 181.339 77.257 180.965C76.8943 180.603 76.3969 180.416 75.7648 180.416C75.0498 180.416 74.4799 180.634 74.0447 181.079C73.6095 181.525 73.3918 182.199 73.3918 183.121V187.473H71.9619V179.266H73.3918V180.447C73.9618 179.535 74.8529 179.069 76.0446 179.069Z" fill="white"/>
<path d="M96.22 176.002V187.494H94.7071V178.51L90.9456 184.768L90.7591 184.758L86.9872 178.499V187.483H85.4639V175.992H87.1841L90.8627 182.095L94.5102 175.992H96.22V176.002Z" fill="white"/>
<path d="M105.339 179.287H106.769V187.494H105.339V186.084C104.624 187.172 103.588 187.711 102.23 187.711C101.08 187.711 100.106 187.297 99.2872 186.457C98.479 185.618 98.0748 184.603 98.0748 183.39C98.0748 182.178 98.479 181.162 99.2872 180.323C100.095 179.484 101.08 179.069 102.23 179.069C103.588 179.069 104.624 179.608 105.339 180.696V179.287ZM102.417 186.323C103.246 186.323 103.94 186.043 104.499 185.473C105.059 184.903 105.339 184.209 105.339 183.38C105.339 182.551 105.059 181.846 104.499 181.287C103.94 180.727 103.246 180.437 102.417 180.437C101.598 180.437 100.904 180.717 100.344 181.287C99.7846 181.846 99.5048 182.551 99.5048 183.38C99.5048 184.209 99.7846 184.913 100.344 185.473C100.904 186.043 101.588 186.323 102.417 186.323Z" fill="white"/>
<path d="M113.017 179.069C113.981 179.069 114.748 179.37 115.328 179.981C115.908 180.592 116.198 181.411 116.198 182.447V187.483H114.768V182.52C114.768 181.857 114.592 181.339 114.23 180.965C113.867 180.603 113.37 180.416 112.737 180.416C112.022 180.416 111.453 180.634 111.017 181.079C110.582 181.525 110.365 182.199 110.365 183.121V187.473H108.935V179.266H110.365V180.447C110.934 179.535 111.826 179.069 113.017 179.069Z" fill="white"/>
<path d="M119.742 186.126H124.105V187.494H117.794V186.53L121.991 180.644H117.97V179.276H123.949V180.219L119.742 186.126Z" fill="white"/>
<path d="M132.26 186.457C131.421 187.286 130.395 187.701 129.193 187.701C127.991 187.701 126.965 187.286 126.136 186.457C125.297 185.629 124.882 184.603 124.882 183.39C124.882 182.178 125.297 181.152 126.136 180.323C126.975 179.494 127.991 179.08 129.193 179.08C130.395 179.08 131.421 179.494 132.26 180.323C133.099 181.152 133.524 182.178 133.524 183.39C133.524 184.603 133.099 185.629 132.26 186.457ZM129.193 186.312C130.011 186.312 130.706 186.033 131.265 185.473C131.825 184.913 132.105 184.219 132.105 183.39C132.105 182.561 131.825 181.867 131.265 181.307C130.706 180.748 130.022 180.468 129.193 180.468C128.385 180.468 127.701 180.748 127.141 181.307C126.581 181.867 126.302 182.561 126.302 183.39C126.302 184.219 126.581 184.913 127.141 185.473C127.701 186.033 128.385 186.312 129.193 186.312Z" fill="white"/>
<path d="M142.146 186.457C141.306 187.286 140.28 187.701 139.078 187.701C137.876 187.701 136.851 187.286 136.022 186.457C135.182 185.629 134.768 184.603 134.768 183.39C134.768 182.178 135.182 181.152 136.022 180.323C136.861 179.494 137.876 179.08 139.078 179.08C140.28 179.08 141.306 179.494 142.146 180.323C142.985 181.152 143.41 182.178 143.41 183.39C143.41 184.603 142.985 185.629 142.146 186.457ZM139.068 186.312C139.887 186.312 140.581 186.033 141.14 185.473C141.7 184.913 141.98 184.219 141.98 183.39C141.98 182.561 141.7 181.867 141.14 181.307C140.581 180.748 139.897 180.468 139.068 180.468C138.26 180.468 137.576 180.748 137.016 181.307C136.457 181.867 136.177 182.561 136.177 183.39C136.177 184.219 136.457 184.913 137.016 185.473C137.576 186.033 138.26 186.312 139.068 186.312Z" fill="white"/>
<path d="M146.529 180.665C146.995 179.649 147.855 179.142 149.088 179.142V180.634C148.384 180.603 147.783 180.789 147.285 181.193C146.778 181.598 146.529 182.25 146.529 183.152V187.504H145.099V179.297H146.529V180.665Z" fill="white"/>
<path d="M257.944 164.261H261.436V165.204H256.949V157.692H261.384V158.635H257.955V160.946H261.125V161.878H257.955V164.261H257.944Z" fill="white"/>
<path d="M267.198 165.204H266.099L264.586 163.173L263.073 165.204H261.975L264.027 162.438L262.089 159.837H263.198L264.576 161.702L265.965 159.837H267.063L265.125 162.438L267.198 165.204Z" fill="white"/>
<path d="M271.032 159.702C271.788 159.702 272.42 159.971 272.949 160.521C273.477 161.07 273.747 161.733 273.747 162.521C273.747 163.308 273.477 163.971 272.949 164.521C272.42 165.07 271.778 165.339 271.032 165.339C270.141 165.339 269.467 164.987 269.001 164.272V167.339H268.068V159.826H269.001V160.749C269.467 160.054 270.141 159.702 271.032 159.702ZM270.918 164.438C271.457 164.438 271.902 164.251 272.265 163.888C272.628 163.526 272.814 163.059 272.814 162.521C272.814 161.982 272.628 161.526 272.265 161.153C271.902 160.78 271.446 160.604 270.918 160.604C270.369 160.604 269.923 160.79 269.55 161.153C269.187 161.526 269.001 161.982 269.001 162.521C269.001 163.07 269.187 163.526 269.55 163.888C269.913 164.261 270.369 164.438 270.918 164.438Z" fill="white"/>
<path d="M275.332 158.863C275.156 158.863 275 158.801 274.876 158.676C274.752 158.552 274.69 158.407 274.69 158.241C274.69 158.065 274.752 157.92 274.876 157.795C275 157.671 275.146 157.609 275.332 157.609C275.508 157.609 275.653 157.671 275.767 157.795C275.892 157.92 275.954 158.065 275.954 158.241C275.954 158.417 275.892 158.562 275.767 158.676C275.653 158.801 275.508 158.863 275.332 158.863ZM274.866 165.204V159.837H275.798V165.204H274.866Z" fill="white"/>
<path d="M278.161 160.738C278.472 160.075 279.021 159.743 279.84 159.743V160.718C279.384 160.697 278.99 160.821 278.658 161.08C278.327 161.35 278.161 161.774 278.161 162.355V165.204H277.228V159.837H278.161V160.738Z" fill="white"/>
<path d="M284.606 159.837H285.601L283.415 165.536C283.187 166.147 282.865 166.603 282.451 166.925C282.036 167.246 281.57 167.381 281.031 167.349V166.479C281.684 166.531 282.171 166.168 282.472 165.381L282.575 165.184L280.233 159.837H281.228L283.021 163.951L284.606 159.837Z" fill="white"/>
<path d="M292.098 157.692C293.124 157.692 293.974 158.054 294.647 158.78C295.321 159.505 295.663 160.396 295.663 161.443C295.663 162.49 295.321 163.381 294.647 164.106C293.974 164.831 293.124 165.194 292.098 165.194H289.166V157.681H292.098V157.692ZM292.098 164.261C292.865 164.261 293.487 163.992 293.974 163.453C294.461 162.914 294.699 162.251 294.699 161.443C294.699 160.635 294.461 159.971 293.974 159.433C293.487 158.894 292.865 158.624 292.098 158.624H290.171V164.251H292.098V164.261Z" fill="white"/>
<path d="M301.227 159.837H302.16V165.204H301.227V164.282C300.761 164.987 300.088 165.349 299.196 165.349C298.45 165.349 297.808 165.08 297.279 164.531C296.751 163.982 296.482 163.318 296.482 162.531C296.482 161.743 296.751 161.08 297.279 160.531C297.808 159.982 298.45 159.712 299.196 159.712C300.088 159.712 300.761 160.065 301.227 160.78V159.837ZM299.31 164.438C299.849 164.438 300.305 164.251 300.678 163.888C301.051 163.526 301.227 163.059 301.227 162.521C301.227 161.982 301.041 161.526 300.678 161.153C300.316 160.78 299.86 160.604 299.31 160.604C298.772 160.604 298.326 160.79 297.963 161.153C297.601 161.526 297.414 161.982 297.414 162.521C297.414 163.07 297.601 163.526 297.963 163.888C298.326 164.261 298.772 164.438 299.31 164.438Z" fill="white"/>
<path d="M306.491 160.738H305.061V163.65C305.061 163.919 305.113 164.106 305.217 164.21C305.321 164.324 305.476 164.375 305.694 164.386C305.911 164.386 306.17 164.386 306.491 164.365V165.204C305.673 165.308 305.082 165.246 304.699 165.008C304.315 164.769 304.129 164.313 304.129 163.65V160.738H303.062V159.837H304.129V158.614L305.061 158.334V159.837H306.491V160.738Z" fill="white"/>
<path d="M307.984 162.945C308.077 163.422 308.295 163.795 308.647 164.065C308.989 164.324 309.424 164.458 309.932 164.458C310.636 164.458 311.155 164.199 311.476 163.671L312.274 164.116C311.756 164.925 310.968 165.329 309.911 165.329C309.061 165.329 308.367 165.059 307.839 164.531C307.31 164.002 307.041 163.318 307.041 162.51C307.041 161.702 307.3 161.028 307.828 160.49C308.346 159.951 309.03 159.681 309.859 159.681C310.647 159.681 311.289 159.961 311.787 160.51C312.284 161.07 312.533 161.733 312.533 162.51C312.533 162.645 312.522 162.79 312.502 162.925H307.984V162.945ZM309.839 160.572C309.341 160.572 308.927 160.718 308.595 160.997C308.263 161.277 308.067 161.661 307.984 162.127H311.569C311.486 161.619 311.289 161.236 310.968 160.966C310.647 160.707 310.274 160.572 309.839 160.572Z" fill="white"/>
<path d="M264.586 186.084C263.809 187.173 262.721 187.711 261.322 187.711C259.923 187.711 258.835 187.173 258.058 186.084C257.281 184.996 256.887 183.556 256.887 181.753C256.887 179.95 257.281 178.499 258.058 177.422C258.835 176.344 259.923 175.795 261.322 175.795C262.721 175.795 263.809 176.334 264.586 177.422C265.364 178.51 265.747 179.95 265.747 181.753C265.747 183.556 265.364 184.996 264.586 186.084ZM259.167 185.048C259.675 185.825 260.39 186.219 261.322 186.219C262.255 186.219 262.97 185.825 263.478 185.048C263.985 184.271 264.244 183.173 264.244 181.753C264.244 180.333 263.985 179.225 263.478 178.447C262.97 177.67 262.245 177.277 261.322 177.277C260.39 177.277 259.675 177.67 259.167 178.447C258.659 179.225 258.41 180.333 258.41 181.763C258.41 183.173 258.659 184.271 259.167 185.048Z" fill="white"/>
<path d="M266.866 187.494V186.25L270.918 182.116C272.006 181.028 272.545 180.105 272.545 179.328C272.545 178.686 272.348 178.178 271.954 177.815C271.56 177.453 271.073 177.277 270.514 177.277C269.426 177.277 268.638 177.795 268.151 178.82L266.866 178.064C267.229 177.318 267.726 176.758 268.369 176.375C269.011 175.992 269.716 175.805 270.493 175.805C271.457 175.805 272.296 176.126 273.001 176.758C273.716 177.391 274.068 178.251 274.068 179.318C274.068 180.478 273.384 181.743 272.016 183.11L269.084 186.033H274.275V187.514H266.866V187.494Z" fill="white"/>
<path d="M276.41 189.11L275.56 189.131L282.13 174.375L282.979 174.354L276.41 189.11Z" fill="white"/>
<path d="M288.782 180.706C289.663 180.872 290.378 181.245 290.938 181.836C291.497 182.427 291.777 183.173 291.777 184.085C291.777 185.204 291.394 186.084 290.627 186.727C289.86 187.369 288.927 187.691 287.839 187.691C286.959 187.691 286.181 187.494 285.508 187.09C284.824 186.685 284.347 186.116 284.068 185.359L285.352 184.603C285.694 185.66 286.523 186.198 287.85 186.198C288.565 186.198 289.145 186.012 289.591 185.639C290.036 185.266 290.264 184.748 290.264 184.085C290.264 183.421 290.036 182.893 289.591 182.52C289.145 182.147 288.565 181.95 287.85 181.95H287.456L286.845 181.017L289.508 177.422H284.399V175.992H291.29L291.28 177.328L288.782 180.706Z" fill="white"/>
<path d="M300.823 186.084C300.046 187.173 298.958 187.711 297.559 187.711C296.16 187.711 295.072 187.173 294.295 186.084C293.518 184.996 293.124 183.556 293.124 181.753C293.124 179.95 293.518 178.499 294.295 177.422C295.072 176.344 296.16 175.795 297.559 175.795C298.958 175.795 300.046 176.334 300.823 177.422C301.6 178.51 301.994 179.95 301.994 181.753C301.984 183.556 301.6 184.996 300.823 186.084ZM295.404 185.048C295.912 185.825 296.627 186.219 297.559 186.219C298.492 186.219 299.207 185.825 299.715 185.048C300.222 184.271 300.481 183.173 300.481 181.753C300.481 180.333 300.222 179.225 299.715 178.447C299.207 177.67 298.481 177.277 297.559 177.277C296.627 177.277 295.912 177.67 295.404 178.447C294.896 179.225 294.647 180.333 294.647 181.763C294.647 183.173 294.896 184.271 295.404 185.048Z" fill="white"/>
<path d="M323.993 35.0956H320.501C319.413 35.0956 318.595 35.3961 318.128 36.4634L311.414 51.6856H316.159C316.159 51.6856 316.947 49.6442 317.123 49.1986H322.905C323.05 49.7789 323.455 51.6856 323.455 51.6856H327.651L323.993 35.0956ZM318.429 45.8102C318.792 44.8465 320.201 41.1575 320.201 41.1575C320.201 41.1575 320.595 40.1834 320.812 39.5824L321.113 41.0124C321.113 41.0124 321.993 44.9604 322.17 45.8102H318.429Z" fill="white"/>
<path d="M305.393 39.6964C305.383 40.4736 306.357 40.9917 307.942 41.7585C310.543 42.9398 311.755 44.3802 311.735 46.2661C311.704 49.7064 308.616 51.9343 303.859 51.9343C301.839 51.9135 299.88 51.499 298.823 51.0535L299.466 47.3334L300.046 47.6028C301.528 48.2142 302.492 48.4733 304.305 48.4733C305.6 48.4733 306.989 47.9655 306.999 46.8567C307.01 46.121 306.419 45.6029 304.657 44.7843C302.937 43.9968 300.668 42.6704 300.689 40.2871C300.709 37.0644 303.859 34.8054 308.326 34.8054C310.077 34.8054 311.486 35.1681 312.388 35.4997L311.776 39.0954L311.372 38.9089C310.533 38.5669 309.465 38.2457 307.984 38.2664C306.222 38.2664 305.393 39.0125 305.393 39.6964Z" fill="white"/>
<path d="M298.823 35.0852L295.984 51.6752H291.477L294.305 35.0852H298.823Z" fill="white"/>
<path d="M282.586 43.6237C281.083 39.7897 277.477 36.5981 272.016 35.2717L272.078 34.9297H279.094C280.047 34.9608 280.803 35.2717 281.073 36.2768L282.586 43.6237Z" fill="white"/>
<path d="M292.471 35.0956L285.342 51.6545H280.565L276.513 37.8312C279.425 39.6964 281.902 42.6497 282.772 44.7014L283.249 46.4112L287.684 35.0956H292.471Z" fill="white"/>
<path d="M59.3303 59.4469H31.0619C29.2693 59.4469 27.7978 57.9755 27.7978 56.1828V35.2406C27.7978 33.448 29.2693 31.9765 31.0619 31.9765H59.3303C61.1229 31.9765 62.5944 33.448 62.5944 35.2406V56.1828C62.6047 57.9859 61.1333 59.4469 59.3303 59.4469Z" fill="#F6C859"/>
<path d="M41.1963 55.789C41.0512 55.789 40.9061 55.7061 40.8336 55.5714C40.73 55.3746 40.8129 55.1259 41.0097 55.0326C41.59 54.7321 42.3879 54.1725 42.8439 53.1985C43.4242 51.9654 43.2791 50.6286 43.0304 50.5146C42.9682 50.4836 42.7195 50.6079 42.5744 50.6908C42.191 50.8877 41.6729 51.1571 41.0616 50.9395C40.4605 50.7322 40.1704 50.2038 40.0357 49.9447C39.1238 48.2764 38.844 43.9242 39.8077 41.7585C40.1289 41.0435 40.5642 40.6187 41.103 40.4943C41.6522 40.37 42.0978 40.5979 42.4605 40.7845C42.761 40.9399 42.906 41.0021 42.9993 40.9503C43.3723 40.7223 43.362 39.3441 42.8439 38.2457C42.3879 37.2716 41.59 36.7121 41.0097 36.4116C40.8129 36.3079 40.73 36.0696 40.8336 35.8727C40.9372 35.6758 41.1755 35.593 41.3724 35.6966C42.0667 36.0489 43.0097 36.7224 43.5692 37.8934C44.1184 39.054 44.3775 41.0539 43.4138 41.6342C42.9268 41.9243 42.4605 41.686 42.0874 41.4995C41.8076 41.3544 41.5382 41.2197 41.2792 41.2818C40.9268 41.3647 40.6781 41.7689 40.5331 42.1005C39.6937 43.9864 39.9321 48.1002 40.73 49.5717C40.8647 49.8204 41.0305 50.0898 41.3102 50.1934C41.5797 50.2867 41.8387 50.1727 42.2014 49.9862C42.5537 49.81 42.9475 49.6028 43.3723 49.81C44.2739 50.2452 44.2117 52.1933 43.5589 53.5715C42.9993 54.7425 42.0563 55.416 41.3621 55.7683C41.3206 55.7683 41.2584 55.789 41.1963 55.789Z" fill="#7D662D"/>
<path d="M39.9839 42.4839H32.7303C32.5127 42.4839 32.3261 42.3077 32.3261 42.0798C32.3261 41.8518 32.5023 41.6756 32.7303 41.6756H39.9839C40.2015 41.6756 40.388 41.8518 40.388 42.0798C40.388 42.3077 40.2118 42.4839 39.9839 42.4839Z" fill="#7D662D"/>
<path d="M39.9839 49.7375H32.7303C32.5127 49.7375 32.3261 49.5613 32.3261 49.3333C32.3261 49.1157 32.5023 48.9292 32.7303 48.9292H39.9839C40.2015 48.9292 40.388 49.1054 40.388 49.3333C40.388 49.5613 40.2118 49.7375 39.9839 49.7375Z" fill="#7D662D"/>
<path d="M49.6622 55.7891C49.6001 55.7891 49.5379 55.7787 49.4757 55.7476C48.7814 55.3953 47.8385 54.7217 47.2789 53.5508C46.6261 52.1726 46.5639 50.2349 47.4654 49.7893C47.8903 49.582 48.2841 49.7893 48.6364 49.9654C48.9991 50.152 49.2581 50.266 49.5275 50.1727C49.828 50.0691 50.0042 49.7478 50.1078 49.551C50.9161 48.0795 51.1544 43.976 50.3047 42.0798C50.1596 41.7585 49.9109 41.344 49.5586 41.2611C49.341 41.2093 49.2063 40.9917 49.2581 40.7741C49.3099 40.5565 49.5275 40.4218 49.7451 40.4736C50.284 40.5979 50.7192 41.0228 51.0404 41.7482C52.0041 43.9035 51.7243 48.2557 50.8125 49.9344C50.6777 50.1934 50.3772 50.7219 49.7866 50.9291C49.1752 51.1364 48.6571 50.8773 48.2737 50.6804C48.1286 50.6079 47.8799 50.4836 47.8178 50.5043C47.5794 50.6183 47.424 51.955 48.0043 53.1881C48.4602 54.1622 49.2581 54.7217 49.8384 55.0222C50.0353 55.1259 50.1182 55.3642 50.0146 55.5611C49.942 55.7062 49.8073 55.7891 49.6622 55.7891Z" fill="#7D662D"/>
<path d="M48.0457 40.8777C47.8799 40.8777 47.7245 40.7741 47.6623 40.5979C46.8022 38.0074 48.8229 36.0075 49.4757 35.6759C49.6726 35.5722 49.9213 35.6551 50.0145 35.852C50.1182 36.0489 50.0353 36.2976 49.8384 36.3909C49.5482 36.5359 47.6934 38.1317 48.4291 40.3389C48.5016 40.5461 48.3877 40.7741 48.1701 40.8466C48.1286 40.8674 48.0872 40.8777 48.0457 40.8777Z" fill="#7D662D"/>
<path d="M58.1178 42.4839H50.8642C50.6466 42.4839 50.4601 42.3077 50.4601 42.0798C50.4601 41.8518 50.6363 41.6756 50.8642 41.6756H58.1178C58.3354 41.6756 58.522 41.8518 58.522 42.0798C58.522 42.3077 58.3458 42.4839 58.1178 42.4839Z" fill="#7D662D"/>
<path d="M58.1178 49.7375H50.8642C50.6466 49.7375 50.4601 49.5613 50.4601 49.3333C50.4601 49.1157 50.6363 48.9292 50.8642 48.9292H58.1178C58.3354 48.9292 58.522 49.1054 58.522 49.3333C58.522 49.5613 58.3458 49.7375 58.1178 49.7375Z" fill="#7D662D"/>
<defs>
<linearGradient id="paint0_linear_0_337" x1="112.637" y1="276.706" x2="198.435" y2="56.2547" gradientUnits="userSpaceOnUse">
<stop stop-color="#93278F"/>
<stop offset="1" stop-color="#29ABE2"/>
</linearGradient>
</defs>
</svg>
